<?xml version="1.0" standalone="no"?>
<!DOCTYPE svg PUBLIC "-//W3C//DTD SVG 20010904//EN"
 "http://www.w3.org/TR/2001/REC-SVG-20010904/DTD/svg10.dtd">
<svg version="1.0" xmlns="http://www.w3.org/2000/svg"
 width="700.000000pt" height="700.000000pt" viewBox="0 0 700.000000 700.000000"
 preserveAspectRatio="xMidYMid meet">
<metadata>
Created by potrace 1.14, written by Peter Selinger 2001-2017
</metadata>
<g transform="translate(0.000000,700.000000) scale(0.100000,-0.100000)"
fill="#000000" stroke="none">
<path d="M3227 6784 c-1 -1 -76 -5 -167 -9 -91 -4 -187 -8 -215 -10 -112 -8
-212 -16 -245 -20 -19 -2 -62 -7 -95 -10 -74 -7 -218 -24 -266 -31 -20 -2 -54
-6 -75 -9 -21 -2 -53 -6 -70 -9 -18 -3 -52 -8 -75 -11 -24 -3 -82 -12 -129
-20 -47 -8 -103 -17 -125 -21 -22 -3 -130 -24 -240 -46 -246 -48 -222 -44
-330 -68 -49 -11 -99 -23 -110 -25 -213 -47 -647 -170 -997 -282 l-88 -28 0
-152 c0 -139 2 -153 18 -154 24 -1 55 -6 217 -35 171 -30 159 -28 275 -53 52
-11 129 -27 170 -36 355 -75 988 -238 1295 -334 291 -91 426 -135 470 -151 28
-11 95 -35 150 -54 639 -220 1357 -551 1920 -884 125 -75 418 -262 484 -310
24 -18 47 -32 51 -32 23 0 447 413 601 585 345 386 634 776 858 1160 85 145
221 406 221 424 0 17 -464 187 -719 263 -169 50 -402 113 -461 124 -14 3 -50
11 -80 19 -125 32 -538 110 -690 129 -25 4 -61 8 -80 11 -19 3 -55 7 -80 10
-25 3 -56 8 -70 10 -14 2 -54 7 -90 10 -36 4 -78 8 -95 10 -16 2 -70 6 -120
10 -49 4 -106 8 -125 10 -132 12 -882 29 -893 19z"/>
<path d="M6 3300 c0 -1306 4 -2093 10 -2099 5 -5 41 -27 79 -49 523 -293 984
-486 1585 -667 132 -39 482 -121 645 -150 91 -16 206 -35 245 -40 25 -3 70
-10 100 -15 30 -5 82 -12 115 -15 33 -3 75 -8 93 -10 18 -3 66 -8 105 -11 40
-3 88 -7 107 -9 216 -23 773 -23 1085 -1 107 8 213 17 235 21 14 2 52 7 85 10
33 3 74 8 90 10 17 3 68 10 115 16 47 6 96 13 110 15 26 3 233 39 285 49 497
96 1151 292 1525 457 30 14 75 33 100 44 25 10 98 45 162 76 l118 57 -12 28
c-7 15 -48 97 -90 181 -380 748 -910 1406 -1588 1971 -129 108 -134 112 -152
126 -612 483 -1227 843 -2033 1192 -347 151 -889 350 -1220 448 -316 95 -514
151 -595 171 -8 2 -96 24 -195 49 -215 55 -341 84 -695 160 -53 12 -231 46
-260 51 -19 3 -51 9 -70 15 -19 5 -46 9 -60 9 l-25 0 1 -2090z"/>
</g>
</svg>
