<svg viewBox="0 0 51 51" version="1.1" xmlns="http://www.w3.org/2000/svg" xmlns:xlink="http://www.w3.org/1999/xlink" fill="currentColor" width="51px" height="51px">
    <defs>
        <path d="M17.203125,42.321875 L17.203125,39.01875 L18.690625,39.01875 L18.690625,42.321875 L17.203125,42.321875 Z M20.978125,42.321875 L20.978125,39.01875 L22.46875,39.01875 L22.46875,42.321875 L20.978125,42.321875 Z M26.9875,42.321875 L26.9875,39.01875 L28.478125,39.01875 L28.478125,42.321875 L26.9875,42.321875 Z M31.45,42.321875 L31.45,39.01875 L32.940625,39.01875 L32.940625,42.321875 L31.45,42.321875 Z M21.49375,35.071875 L21.49375,31.89375 L22.98125,31.89375 L22.98125,35.071875 L21.49375,35.071875 Z M18.234375,35.071875 L18.234375,31.89375 L19.725,31.89375 L19.725,35.071875 L18.234375,35.071875 Z M27.1625,35.071875 L27.1625,31.89375 L28.653125,31.89375 L28.653125,35.071875 L27.1625,35.071875 Z M30.39375,35.071875 L30.39375,31.89375 L31.884375,31.89375 L31.884375,35.071875 L30.39375,35.071875 Z M3.909375,48.50625 L13.49375,48.50625 L13.49375,37.953125 L3.909375,37.953125 L3.909375,48.50625 Z M13.49375,35.865625 L8.7,30.421875 L3.909375,35.865625 L3.909375,36.4625 L13.49375,36.4625 L13.49375,35.865625 Z M21.103125,14.19375 L19.271875,14.19375 L20.1875,15.1125 L21.103125,14.19375 Z M31.00625,6.39375 L31.30625,6.69375 L34.246875,3.746875 L33.953125,3.45 L31.00625,6.39375 Z M27.621875,48.50625 L34.93125,48.50625 L34.93125,46.3 L27.621875,46.3 L27.621875,48.50625 Z M23.7875,45.1375 L23.7875,48.50625 L26.13125,48.50625 L26.13125,45.1375 C26.13125,44.85625 26.028125,44.584375 25.840625,44.36875 C25.61875,44.11875 25.3,43.9875 24.959375,43.9875 L24.94375,43.9875 C24.596875,43.990625 24.28125,44.13125 24.075,44.36875 C23.8875,44.584375 23.7875,44.853125 23.7875,45.1375 Z M14.984375,48.50625 L22.296875,48.50625 L22.296875,46.3 L14.984375,46.3 L14.984375,48.50625 Z M14.984375,44.8125 L22.321875,44.8125 C22.3875,44.284375 22.60625,43.7875 22.953125,43.390625 C23.453125,42.809375 24.1875,42.478125 24.959375,42.478125 C25.73125,42.478125 26.4625,42.809375 26.965625,43.390625 C27.31875,43.80625 27.528125,44.296875 27.59375,44.8125 L34.93125,44.8125 L34.93125,37.953125 L14.984375,37.953125 L14.984375,44.8125 Z M35.74375,26.4 L14.4,26.4 L16.471875,28.771875 L33.671875,28.771875 L35.74375,26.4 Z M14.4,26.4 L35.74375,26.4 L35.74375,25.08125 L14.4,25.08125 L14.4,26.4 Z M16.86875,36.4625 L24.325,36.4625 L24.325,30.2625 L16.86875,30.2625 L16.86875,36.4625 Z M25.815625,36.4625 L33.275,36.4625 L33.275,30.2625 L25.815625,30.2625 L25.815625,36.4625 Z M19.134375,16.1625 L18.840625,15.865625 L15.896875,18.809375 L16.19375,19.103125 L19.134375,16.1625 Z M28.753125,18.709375 L27.553125,17.509375 L28.903125,16.1625 L27.259375,14.51875 L27.684375,23.59375 L29.38125,23.59375 L28.753125,18.709375 Z M32.9,20.15625 L29.95625,17.215625 L29.6625,17.509375 L32.603125,20.453125 L32.9,20.15625 Z M27.55,12.703125 L28.425,12.703125 L26.778125,10.625 L26.125,11.278125 L27.55,12.703125 Z M24.390625,14.19375 L23.95,23.59375 L26.19375,23.59375 L25.753125,14.19375 L24.390625,14.19375 Z M24.7,12.703125 L25.44375,12.703125 L25.071875,12.33125 L24.7,12.703125 Z M24.296875,9.446875 L25.071875,10.225 L25.846875,9.45 L25.071875,8.471875 L24.296875,9.446875 Z M21.71875,12.703125 L22.59375,12.703125 L24.01875,11.278125 L23.365625,10.625 L21.71875,12.703125 Z M22.884375,14.51875 L21.778125,15.625 L20.7625,23.59375 L22.459375,23.59375 L22.884375,14.51875 Z M17.246875,2.4 L20.1875,5.34375 L20.48125,5.04375 L17.54375,2.103125 L17.246875,2.4 Z M46.00625,35.865625 L41.2125,30.421875 L36.425,35.865625 L36.425,36.4625 L46.00625,36.4625 L46.00625,35.865625 Z M36.425,48.50625 L46.00625,48.50625 L46.00625,37.953125 L36.425,37.953125 L36.425,48.50625 Z M47.496875,48.50625 L49.290625,48.50625 L49.290625,49.996875 L0.625,49.996875 L0.625,48.50625 L2.421875,48.50625 L2.421875,35.3 L2.478125,35.234375 L8.7,28.171875 L14.984375,35.3 L14.984375,36.4625 L15.38125,36.4625 L15.38125,29.7875 L12.9125,26.8375 L12.9125,23.59375 L19.2625,23.59375 L20.05625,17.346875 L16.19375,21.209375 L13.790625,18.809375 L18.840625,13.759375 L18.91875,13.840625 L22.30625,9.565625 L15.140625,2.4 L17.54375,1.0658141e-14 L17.70625,0.1625 L22.590625,5.04375 L21.240625,6.39375 L23.2375,8.390625 L25.071875,6.075 L26.90625,8.39375 L33.953125,1.35 L36.35,3.746875 L36.1875,3.9125 L31.30625,8.79375 L29.95625,7.446875 L27.8375,9.565625 L31.503125,14.19375 L29.0375,14.19375 L35,20.15625 L32.603125,22.559375 L30.478125,20.434375 L30.88125,23.59375 L37.23125,23.59375 L37.23125,26.8375 L37.178125,26.9 L34.7625,29.7875 L34.7625,36.4625 L34.93125,36.4625 L34.93125,35.3 L34.990625,35.234375 L41.2125,28.171875 L47.496875,35.3 L47.496875,48.50625 Z M9.015625,5.903125 L9.015625,3.16875 L10.50625,3.16875 L10.50625,5.903125 L9.015625,5.903125 Z M7.4778125,6.579375 L6.4090625,7.616875 L4.5215625,5.685625 L5.5871875,4.645 L7.4778125,6.579375 Z M3.1,10.73125 L3.1,9.240625 L5.778125,9.240625 L5.778125,10.73125 L3.1,10.73125 Z M4.520625,14.288125 L6.41125,12.35375 L7.476875,13.394375 L5.58625,15.32875 L4.520625,14.288125 Z M9.01875,16.803125 L9.01875,14.071875 L10.509375,14.071875 L10.509375,16.803125 L9.01875,16.803125 Z M15.0034375,14.288125 L13.9378125,15.32875 L12.0471875,13.394375 L13.1128125,12.35375 L15.0034375,14.288125 Z M13.74375,10.73125 L13.74375,9.240625 L16.425,9.240625 L16.425,10.73125 L13.74375,10.73125 Z M15.005,5.6853125 L13.114375,7.6196875 L12.04875,6.5790625 L13.93625,4.6446875 L15.005,5.6853125 Z M11.538125,9.9853125 C11.538125,9.0071875 10.74125,8.2103125 9.763125,8.2103125 C8.785,8.2103125 7.988125,9.0071875 7.988125,9.9853125 C7.988125,10.9634375 8.785,11.7603125 9.763125,11.7603125 C10.74125,11.7603125 11.538125,10.9634375 11.538125,9.9853125 Z M13.02875,9.9853125 C13.02875,11.7853125 11.563125,13.2509375 9.763125,13.2509375 C7.96,13.2509375 6.4975,11.7853125 6.4975,9.9853125 C6.4975,8.1853125 7.96,6.7196875 9.763125,6.7196875 C11.563125,6.7196875 13.02875,8.1853125 13.02875,9.9853125 Z" id="amesterdam" />
    </defs>
    <g stroke="none" stroke-width="1" fill="none" fill-rule="evenodd">
        <g id="intl-Hotel-City-landing---Amsterdam---Desktop" transform="translate(-774.000000, -138.000000)">
            <g transform="translate(649.000000, 94.000000)">
                <g transform="translate(61.500000, 44.500000)">
                    <g>
                        <g id="Icon-/-Tours-Homepage-/-amsterdam" transform="translate(64.000000, 0.000000)">
                            <mask id="amesterdam-mask" fill="white">
                                <use xlink:href="#amesterdam" />
                            </mask>
                            <use id="Mask" fill="#000000" xlink:href="#amesterdam" />
                            <g id="Color-Palettes-/-White-Color" mask="url(#amesterdam-mask)" fill="currentColor">
                                <rect id="White-Color" x="0" y="0" width="50" height="50" />
                            </g>
                        </g>
                    </g>
                </g>
            </g>
        </g>
    </g>
</svg>