<svg
    viewBox="0 0 49 50"
    class="svg-icon"
    fill="currentColor"
    xmlns="http://www.w3.org/2000/svg"
>
    <g fill-rule="nonzero" fill="none">
        <path d="M29.812 23.811V20.2c-.686.834-.578 3.242 0 3.611zM19.694 20.06v3.692c.686-.598.64-3.094 0-3.692zM19.964 30.014c.439-.812.339-3.13-.154-3.522-.417.805-.316 3.146.154 3.522zM12.458 16.929c-.662.827-.608 3.33 0 3.817V16.93zM36.87 27.075v-3.692c-.678.68-.609 3.146 0 3.692zM12.474 27.001v-3.795c-.686.768-.624 3.382 0 3.795zM29.442 30.022h.362v-3.538h-.409a14.244 14.244 0 00.047 3.538zM39.174 20.156a18.404 18.404 0 000 3.854c.755-.856.686-3.456 0-3.854zM39.336 26.506a.415.415 0 00-.231.31v1.935c0 .436.061.864.1 1.3h.485v-3.33c-.03-.096-.262-.237-.354-.215zM36.516 20.658c.608-.628.577-3.043 0-3.692v3.692zM9.954 23.892c.678-.613.67-3.264 0-3.818v3.818zM10.2 26.433l-.362.066v3.22c0 .103.224.207.347.303.085-.133.24-.259.247-.4V26.89c.007-.155-.147-.302-.231-.457zM17.036 20.872c.631-.738.577-3.323 0-3.796v3.796zM15.163 23.774c.2-1.248.174-2.52-.077-3.759-.516.872-.462 3.309.077 3.76zM24.888 23.774v-3.78c-.524.723-.54 3.16 0 3.78zM17.028 27.171c.609-.783.593-3.3 0-3.965v3.965zM26.752 20.673c.625-.281.717-2.954 0-3.744v3.744zM31.954 27.075v-3.921c-.609.79-.578 3.323 0 3.921zM26.776 27.075c.64-.605.624-3.25 0-3.773v3.773zM34.55 26.447l-.315.052v3.205c0 .118.2.229.308.347.085-.14.239-.273.246-.406v-2.821c.008-.126-.154-.251-.238-.377zM22.214 27.075v-3.833c-.632.65-.624 3.22 0 3.833zM24.888 30.162v-3.855c-.555.753-.54 3.22 0 3.855zM34.358 23.892c.616-.605.624-3.168 0-3.825v3.825zM31.522 20.362c0 .119.216.252.493.547v-3.766H31.7c-.416 1.019-.107 2.141-.177 3.22zM15.155 30.147V26.3c-.578.76-.562 3.234 0 3.847zM22.26 20.702v-3.736c-.732.716-.67 3.382 0 3.736z" fill="#000" />
        <path d="M48.297 48.166v-.93-15.11c0-1.661.17-1.366-1.487-1.388-1.656-.022-3.236 0-4.916 0v-19.4H24.71V3.732h3.491V1.517C28.178 1.34 27.97 1 27.831 1h-3.714v10.338H8.297c-.6 0-.948.074-.948.805V30.76H1v17.457h0v.54h47.297v-.591zM24.726 1.576h2.882v1.64h-2.882v-1.64zM4.252 48.166v-2.74H8.39v2.74H4.252zm38.266-9.807v2.85h-4.16v-2.85h4.16zm-1.48-.739v-2.798h4.185v2.82l-4.184-.022zm-29.25 4.24h4.153v2.842h-4.153V41.86zm-2.782-.65v-2.851h4.246v2.85H9.006zm16.683.664v2.813h-4.153v-2.813h4.153zm-1.965-.739V38.36h4.1v2.784l-4.1-.008zm-.77.06h-4.138v-2.836H23l-.047 2.835zm-2.181.664v2.784h-4.077v-2.777l4.077-.007zm-2.69-.738H14v-2.77h4.13l-.045 2.77zm-4.145 4.297h4.13v2.725h-4.084l-.046-2.725zm4.839 2.725v-2.747h4.192v2.77l-4.192-.023zm9.023 0h-4.076v-2.732h4.123l-.047 2.732zm-1.371-3.478V41.89h4.122v2.776H26.43zm2.157-3.47v-2.858h4.17v2.857h-4.17zm2.751.671h4.184v2.821h-4.2l.016-2.82zm2.166-.738v-2.791h4.145v2.791h-4.145zm0 4.268h4.13v2.762h-4.154l.024-2.762zm2.658-.738v-2.762h4.138v2.762h-4.138zm2.204.738h4.2v2.777h-4.223l.023-2.777zm2.705-.701V41.88h4.191v2.814H41.07zm-.771-7.075h-4.138v-2.784h4.138v2.784zm-2.69-3.493h-4.137V31.33h4.169l-.031 2.798zm-2.126.687v2.843H31.33v-2.843h4.153zm-2.759-.694H28.58v-2.791h4.176l-.03 2.791zm-2.196.738v2.8h-4.1v-2.822l4.1.022zm-2.697-.738h-4.084v-2.784h4.115l-.03 2.784zm-2.119.687v2.82h-4.169v-2.805l4.17-.015zm-2.72-.68h-4.169v-2.776h4.2l-.031 2.776zm-2.173.672v2.784h-4.138v-2.769l4.138-.015zm-2.705-.738h-4.107v-2.74h4.138l-.03 2.74zm-2.196.738v2.807h-4.13v-2.807h4.13zm-2.69-.738H9.038v-2.725h4.223l-.031 2.725zm-2.164.694v2.784h-4.1v-2.717l4.1-.067zm-2.682 3.582v2.791h-4.13v-2.791h4.13zm-1.418 3.552h4.123v2.784H6.964v-2.784zm2.096 3.485h4.192v2.792H9.06v-2.792zm19.542 2.792v-2.8h4.145v2.8h-4.145zm14.64-16.837h4.478v16.837h-4.493v-2.858h4.115v-.406l-1.449-.252v-2.732l1.426-.207v-.45c-.663 0-1.333-.06-1.996-.074-.663-.015-1.395 0-2.134 0v-2.791c1.348-.28 2.781.118 4.138-.214v-.362l-1.441-.237v-2.717l1.433-.236v-.355h-4.107l.03-2.946zm-.685 0v2.784h-4.208v-2.784h4.208zM7.98 11.922h33.343v2.762H7.98v-2.762zm.247 3.434c.212-.034.428-.034.64 0h31.539c.18-.03.366-.03.547 0a.75.75 0 01.354.376c0 .067-.184.266-.315.303-.215.03-.433.03-.648 0H8.814a1.92 1.92 0 01-.548 0 .51.51 0 01-.308-.332.446.446 0 01.27-.347h0zm-.293 1.351h33.366v13.957H7.935V16.707zM4.23 31.336h4.16v2.791H4.23v-2.791zm-.694 0v2.747l-1.541.214c.609.68 1.349.421 2.027.465.678.045 1.402 0 2.165 0v2.991H2.025l-.046.384 1.54.259v2.754l-1.54.192v.273c1.333.436 2.758 0 4.2.251v2.954h-4.17v.37l1.542.265v2.725H1.63V31.321l1.904.015z" stroke="currentColor" stroke-width=".7" fill="currentColor" />
    </g>
</svg>