<svg viewBox="0 0 51 51" version="1.1" xmlns="http://www.w3.org/2000/svg" xmlns:xlink="http://www.w3.org/1999/xlink" fill="currentColor" width="51px" height="48px">
    <g fill="none" fill-rule="evenodd">
        <path d="M1 0h48v48H1z" />
        <path d="M42.943 38.058l.588-1.554c.446-1.194.312-1.916-.484-2.632a6.743 6.743 0 00-.248-.215c-2.588-1.864-5.497-2.637-8.384-2.226-.68.084-1.35.278-2.027.422v-.704c-.038-3.395-.22-6.783-.543-10.147a64.67 64.67 0 00-1.091-7.73 12.593 12.593 0 00-1.04-3.207c-.538-1.011-1.215-1.321-2.046-.849a6.29 6.29 0 00-1.327 1.022c-1.68 1.68-2.964 3.875-4.056 6.342a33.815 33.815 0 01-2.691 5.091c-1.315 1.952-2.83 3.421-4.713 4.006-1.334.412-2.656.215-3.986-.081a22.833 22.833 0 00-8.027-.472c-.159.021-.315.053-.474.077-.84.134-1.22.554-1.302 1.762-.094 1.385-.092 2.78-.09 4.172-.021 1.55.085 3.097.318 4.612.382 2.248 1.33 3.678 2.965 4.059A8.79 8.79 0 006 39.982c2.423.074 4.844-.102 7.27-.095 11.783.033 23.566.033 35.352 0H49v-1.015c-2.024-.148-4.028-.078-6.057-.814zM31.086 20.681c.094 1.1.179 2.202.263 3.305 0 .039-.012.077-.03.165h-2.061c-.055 0-.149-.144-.151-.225v-3.463h1.853c.04 0 .119.137.126.218h0zm.34 4.527c-.075 1.1-.144 2.17-.228 3.238 0 .067-.107.166-.167.17h-1.927V25.2l2.322.007zm-.496-6.084c.005.098.005.197 0 .296h-1.7c-.042 0-.12-.145-.12-.222V13.98c.32-.04.634.144.842.493.23.384.404.828.514 1.307.19 1.096.31 2.223.464 3.344zm-3.508-7.988c.186-.33.406-.618.653-.856.123-.176.296-.263.47-.235.173.029.328.168.42.38.246.437.458.91.635 1.409.147.437.276.885.387 1.342-1.3-.645-2.341.095-3.353.973-.444.384-.856.842-1.313 1.296a.984.984 0 01.045-.183c.682-1.367 1.347-2.755 2.056-4.126zm-1.374 18.54h2.312v3.171l-2.312.134v-3.305zm0-1.092v-3.397h2.322v3.397h-2.322zm0-4.475v-3.636h2.327v3.647l-2.327-.01zm2.064-4.686c-.68-.021-1.36 0-2.081 0v-3.23a.455.455 0 01.082-.254c.667-.79 1.427-1.408 2.245-1.826.013.117.022.235.027.353v4.548c.002.314-.052.427-.28.42l.007-.01zM9.24 38.921h-.79c-1.315-.042-2.635 0-3.945-.155-1.272-.155-2.113-1.226-2.413-3.009-.172-.995-.28-2.01-.325-3.033-.06-1.614-.042-3.235-.042-4.848.006-.339.041-.675.104-1.001.102-.585.233-.659.573-.317.215.198.41.435.583.705a81.23 81.23 0 011.525 2.695c.07.165.099.358.085.55-.033 1.761-.075 3.548.176 5.285.09.607.228 1.198.411 1.761.172.593.576.984 1.027.994.888.035 1.779.046 2.667.077.13.02.257.059.382.113l-.018.183zm-3.983-7.205l.092-.042 2.887 6.042c-.69-.067-1.372-.084-2.042-.222-.178-.035-.391-.401-.463-.68-.16-.618-.27-1.26-.328-1.913-.092-1.046-.109-2.11-.154-3.174l.008-.01zm7.161 7.047c-1.424.49-2.627-.353-3.564-1.843a37.241 37.241 0 01-1.6-3.086c-1.037-2.076-2.057-4.172-3.101-6.24-.263-.522-.595-.97-.943-1.526.626-.039 1.203-.095 1.784-.106 2.161-.02 4.32.233 6.45.758 3.224.768 5.98-.61 8.306-3.826 1.31-1.811 2.327-3.94 3.304-6.113.81-1.825 1.803-3.47 2.95-4.884a1.708 1.708 0 01-.038.201c-1.858 3.816-3.356 7.931-4.918 11.98-1.285 3.347-2.581 6.686-3.887 10.016-1.05 2.678-2.774 4.003-4.75 4.686l.007-.017zM22.96 28.545V25.23h2.324v3.364l-2.324-.049zm2.322 1.092v3.344H22.97v-3.312l2.312-.032zm-2.33-5.542c0-.948-.03-1.878 0-2.797.025-.592.316-.885.727-.885h1.593v3.682h-2.32zm.745-4.732c.364-1.057 1.017-1.656 1.597-2.519v2.52h-1.597zm-3.498 9.193c.092-.258.169-.48.248-.705.28-.747.576-1.48.834-2.24.07-.348.317-.557.565-.48.122.014.244.014.365 0v3.41l-2.012.015zm2.012 1.057v3.308H18.54c.014-.104.036-.205.064-.303.353-.909.705-1.822 1.067-2.724.045-.116.146-.267.223-.27.76.017 1.52.027 2.304.027l.013-.038zm-.337-5.525l.282-.754h.047v.74l-.33.014zm8.312 14.735H14.559c.553-.515 1.084-.948 1.565-1.473.37-.43.717-.902 1.037-1.41.084-.167.227-.255.372-.228 2.975.463 5.974.536 8.96.218a10.606 10.606 0 003.516-.987c.045-.02.095-.031.164-.052l.013 3.932zm-1.762-4.334a18.695 18.695 0 01-5.88.585c-1.489-.053-2.977-.212-4.448-.324-.094 0-.189-.032-.288-.05.186-.725.208-.733.724-.733 2.84 0 5.683.025 8.523-.028 1.124-.02 2.245-.218 3.302-.327a5.78 5.78 0 01-1.935.877h.002zm1.56-1.93c-.284.092-.572.16-.863.2v-3.072h1.985c-.248.866-.447 1.67-.697 2.441-.1.214-.252.368-.427.43h.003zm1.655-1.763c.131.952-.179 1.917-.771 2.4l.771-2.4zm-.69 8.051a4.366 4.366 0 01-.024-.334V34.71c-.02-.21.057-.414.19-.507.163-.11.308-.264.43-.451.23-.416.528-.462.866-.462 1.418 0 2.835 0 4.229.437.154.05.305.116.459.176.63.24 1.046.705 1.163 1.716.108 1.331.638 2.52 1.439 3.227H30.95zm8.24-2.389a14.098 14.098 0 01-.327-1.57c-.102-.717-.445-1.316-.917-1.604a5.401 5.401 0 00-2.17-.807c-.063 0-.125-.028-.187-.046v-.042h1.163c.933.028 1.852.333 2.697.895l.54.437c.24.173.348.578.248.934-.071.32-.133.644-.203.968-.23 1.057-.082 1.734.538 2.4a.555.555 0 01.117.18c-.677-.268-1.233-.776-1.5-1.759l.002.014zm3.01 1.55a4.177 4.177 0 01-1.35-1.007c-.176-.222-.236-.577-.149-.888.067-.352.167-.666.211-1.011.055-.458.072-.927.11-1.445.661.31 1.29.75 1.867 1.304.164.133.223.428.132.662-.077.244-.167.476-.248.705-.184.529-.375 1.075-.576 1.667l.003.014z" stroke="currentColor" stroke-width=".5" fill="currentColor" fill-rule="nonzero" />
    </g>
</svg>
