<svg viewBox="0 0 51 51" version="1.1" xmlns="http://www.w3.org/2000/svg" xmlns:xlink="http://www.w3.org/1999/xlink" fill="currentColor" width="51px" height="51px">
    <defs>
        <path d="M22.3584375,48.16875 L27.3303125,48.16875 C26.8240625,43.3125 26.5678125,38.396875 26.5678125,33.534375 L23.1209375,33.534375 C23.1209375,38.39375 22.8646875,43.3125 22.3584375,48.16875 Z M20.5396875,31.815625 L22.2615625,31.815625 L27.4271875,31.815625 L29.1459375,31.815625 C29.6240625,31.815625 30.0115625,31.43125 30.0115625,30.953125 C30.0115625,30.478125 29.6240625,30.09375 29.1459375,30.09375 L27.4271875,30.09375 L22.2615625,30.09375 L20.5396875,30.09375 C20.0646875,30.09375 19.6771875,30.478125 19.6771875,30.953125 C19.6771875,31.43125 20.0646875,31.815625 20.5396875,31.815625 Z M23.1209375,26.475 L23.1209375,28.371875 L26.5678125,28.371875 L26.5678125,26.475 C26.0084375,26.5875 25.4334375,26.646875 24.8428125,26.646875 C24.2521875,26.646875 23.6771875,26.5875 23.1209375,26.475 Z M17.9553125,18.040625 C17.9553125,21.215625 20.1271875,23.86875 23.0521875,24.6625 C23.2303125,24.709375 23.4084375,24.765625 23.5896875,24.796875 C23.9334375,24.865625 24.2928125,24.896875 24.6553125,24.909375 C24.7803125,24.9125 24.9084375,24.9125 25.0334375,24.909375 C25.3959375,24.896875 25.7521875,24.8625 26.0990625,24.796875 C26.2803125,24.765625 26.4584375,24.70625 26.6365625,24.6625 C29.5615625,23.865625 31.7334375,21.215625 31.7334375,18.040625 C31.7334375,14.88125 29.5803125,12.240625 26.6740625,11.43125 C26.4834375,11.38125 26.2896875,11.315625 26.0959375,11.278125 C25.7240625,11.2125 25.3396875,11.16875 24.9459375,11.1625 L24.7428125,11.1625 C24.3490625,11.16875 23.9678125,11.2125 23.5928125,11.278125 C23.3990625,11.315625 23.2084375,11.378125 23.0146875,11.43125 C20.1084375,12.2375 17.9553125,14.88125 17.9553125,18.040625 Z M23.1209375,7.7125 L23.1209375,9.60625 C23.6771875,9.49375 24.2521875,9.43125 24.8428125,9.43125 C25.4334375,9.43125 26.0084375,9.49375 26.5678125,9.60625 L26.5678125,7.7125 L23.1209375,7.7125 Z M34.3146875,48.16875 C34.7896875,48.16875 35.1740625,48.553125 35.1740625,49.028125 C35.1740625,49.50625 34.7896875,49.890625 34.3146875,49.890625 L28.2865625,49.890625 L21.3990625,49.890625 L15.3740625,49.890625 C14.8990625,49.890625 14.5146875,49.50625 14.5146875,49.028125 C14.5146875,48.553125 14.8990625,48.16875 15.3740625,48.16875 L20.6115625,48.16875 C21.1240625,43.296875 21.4021875,38.3875 21.4021875,33.534375 L20.5396875,33.534375 C19.1146875,33.534375 17.9584375,32.375 17.9584375,30.953125 C17.9584375,29.53125 19.1146875,28.371875 20.5396875,28.371875 L21.4021875,28.371875 L21.4021875,25.91875 C18.3678125,24.5875 16.2396875,21.5625 16.2396875,18.040625 C16.2396875,14.51875 18.3678125,11.49375 21.4021875,10.1625 L21.4021875,6.85 C21.4021875,6.375 21.7865625,5.990625 22.2615625,5.990625 L23.9865625,5.990625 L23.9865625,0.859375 C23.9865625,0.384375 24.3709375,1.77635684e-15 24.8428125,1.77635684e-15 C25.3178125,1.77635684e-15 25.7021875,0.384375 25.7021875,0.859375 L25.7021875,5.990625 L27.4271875,5.990625 C27.8990625,5.990625 28.2865625,6.375 28.2865625,6.85 L28.2865625,10.1625 C31.3240625,11.496875 33.4521875,14.51875 33.4521875,18.040625 C33.4521875,21.5625 31.3240625,24.5875 28.2865625,25.91875 L28.2865625,28.371875 L29.1459375,28.371875 C30.5709375,28.371875 31.7334375,29.53125 31.7334375,30.953125 C31.7334375,32.375 30.5709375,33.534375 29.1459375,33.534375 L28.2865625,33.534375 C28.2865625,38.396875 28.5646875,43.315625 29.0771875,48.16875 L34.3146875,48.16875 Z M45.9378125,10.464375 L45.9378125,9.63 C45.9378125,8.889375 45.3753125,8.326875 44.6346875,8.326875 L43.8003125,8.326875 C43.1221875,8.326875 42.6065625,7.81125 42.6065625,7.13 C42.6065625,6.39875 42.0315625,5.83 41.3034375,5.83 L40.4690625,5.83 C39.7409375,5.83 39.1659375,6.39875 39.1659375,7.13 C39.1659375,7.81125 38.6503125,8.326875 37.9690625,8.326875 L37.1378125,8.326875 C36.3940625,8.326875 35.8346875,8.889375 35.8346875,9.63 L35.8346875,10.464375 C35.8346875,11.1925 36.4065625,11.764375 37.1378125,11.764375 L44.6346875,11.764375 C45.3628125,11.764375 45.9378125,11.1925 45.9378125,10.464375 Z M44.6346875,6.764375 C46.2440625,6.764375 47.5003125,8.02375 47.5003125,9.63 L47.5003125,10.464375 C47.5003125,12.070625 46.2440625,13.326875 44.6346875,13.326875 L37.1378125,13.326875 C35.5284375,13.326875 34.2721875,12.070625 34.2721875,10.464375 L34.2721875,9.63 C34.2721875,8.02375 35.5284375,6.764375 37.1378125,6.764375 L37.6253125,6.764375 C37.8003125,5.33625 38.9846875,4.2675 40.4690625,4.2675 L41.3034375,4.2675 C42.7846875,4.2675 43.9721875,5.33625 44.1471875,6.764375 L44.6346875,6.764375 Z M12.553125,27.389375 C12.984375,27.389375 13.334375,27.739375 13.334375,28.170625 C13.334375,28.601875 12.984375,28.951875 12.553125,28.951875 L5.053125,28.951875 C3.44375,28.951875 2.1875,27.695625 2.1875,26.089375 L2.1875,25.255 C2.1875,23.64875 3.44375,22.389375 5.053125,22.389375 L5.54375,22.389375 C5.715625,20.96125 6.903125,19.8925 8.3875,19.8925 L10.78125,19.8925 C11.2125,19.8925 11.5625,20.2425 11.5625,20.67375 C11.5625,21.101875 11.2125,21.455 10.78125,21.455 L8.3875,21.455 C7.65625,21.455 7.084375,22.02375 7.084375,22.755 C7.084375,23.43625 6.56875,23.951875 5.884375,23.951875 L5.053125,23.951875 C4.321875,23.951875 3.75,24.526875 3.75,25.255 L3.75,26.089375 C3.75,26.8175 4.321875,27.389375 5.053125,27.389375 L12.553125,27.389375 Z" id="berlin" />
    </defs>
    <g stroke="none" stroke-width="1" fill="none" fill-rule="evenodd">
        <g id="intl-Hotel-City-landing---Berlin---Desktop" transform="translate(-774.000000, -137.000000)">
            <g transform="translate(649.000000, 94.000000)">
                <g transform="translate(87.500000, 43.500000)">
                    <g>
                        <g id="Icon-/-Tours-Homepage-/-berlin" transform="translate(38.000000, 0.000000)">
                            <mask id="berlin-mask" fill="white">
                                <use xlink:href="#berlin" />
                            </mask>
                            <use id="Mask" fill="#000000" xlink:href="#berlin" />
                            <g id="Color-Palettes-/-White-Color" mask="url(#berlin-mask)" fill="currentColor">
                                <rect id="White-Color" x="0" y="0" width="50" height="50" />
                            </g>
                        </g>
                    </g>
                </g>
            </g>
        </g>
    </g>
</svg>