<svg
    class="svg-icon"
    width="60px"
    height="60px"
    xmlns="http://www.w3.org/2000/svg"
    viewBox="0 0 60 60"
>
    <path fill="currentColor" fill-rule="nonzero" d="M47 44.7c0-8.8-2.5-17.3-7.3-24.7h2.8c1.4 0 2.5-1.1 2.5-2.5S43.9 15 42.5 15h-6.6c-3-3.5-6.5-6.4-10.4-8.9l-.2-.1H23v1.8c-.8-.6-1.6-1.1-2.5-1.6l-.2-.2H20V0h-2v18h-3v2h3v38H0v2h60v-2H47V44.7zM23 35h13.7L23 44.1V35zm0 12h14.8L23 57.1V47zm2.3-2l13.8-9.2c.6 2.9.9 5.9.9 8.9v.3H25.3zM24 33l8.9-12.1c2.5 3.7 4.3 7.8 5.5 12.1H24zm7-13l-8 10.9V20h8zm-8-2v-7.7c2.9 2.2 5.5 4.8 7.8 7.7H23zm17 29.9V58H25.2L40 47.9zM34.7 20h2.6c1.5 2.2 2.9 4.5 3.9 7H40v2h2.1c.5 1.3.9 2.6 1.3 4H42v2h1.9c.4 1.6.7 3.3.8 5H43v2h1.9c.1.9.1 1.8.1 2.7v.3h-2v2h2v5h-2v2h2v4h-3V44.7c0-8.8-2.5-17.3-7.3-24.7zm7.8-3c.3 0 .5.2.5.5s-.2.5-.5.5h-4.2c-.2-.3-.5-.7-.8-1h5zM24.7 8c3.9 2.4 7.3 5.5 10.3 9 .3.3.5.7.8 1h-2.5c-2.8-3.8-6.2-7.2-10.1-10h1.5zm-4.7.2c.3.2.7.4 1 .7V18h-1V8.2zM20 20h1v38h-1V20zm24-10c-1.7 0-3-1.3-3-3s1.3-3 3-3c.6 0 1-.4 1-1 0-1.7 1.3-3 3-3h1c1.7 0 3 1.3 3 3 0 .6.4 1 1 1 1.7 0 3 1.3 3 3s-1.3 3-3 3h-9zm0-4c-.6 0-1 .4-1 1s.4 1 1 1h9c.6 0 1-.4 1-1s-.4-1-1-1c-1.7 0-3-1.3-3-3 0-.6-.4-1-1-1h-1c-.6 0-1 .4-1 1 0 1.7-1.3 3-3 3zM3.5 34C1.6 34 0 32.4 0 30.5S1.6 27 3.5 27H13v2H3.5c-.8 0-1.5.7-1.5 1.5S2.7 32 3.5 32H6v2H3.5zM3 14c-1.7 0-3-1.3-3-3s1.3-3 3-3c.6 0 1-.4 1-1 0-1.7 1.3-3 3-3h1c1.7 0 3 1.3 3 3 0 .6.4 1 1 1 1.7 0 3 1.3 3 3s-1.3 3-3 3H3zm0-4c-.6 0-1 .4-1 1s.4 1 1 1h9c.6 0 1-.4 1-1s-.4-1-1-1c-1.7 0-3-1.3-3-3 0-.6-.4-1-1-1H7c-.6 0-1 .4-1 1 0 1.7-1.3 3-3 3zm46.5 12c-.8 0-1.5.7-1.5 1.5s.7 1.5 1.5 1.5H52v2h-2.5c-1.9 0-3.5-1.6-3.5-3.5s1.6-3.5 3.5-3.5H56v2h-6.5zm8.5-2h2v2h-2v-2zM4 24h9v2H4v-2zm10 0h2v2h-2v-2z" />
</svg>