<svg viewBox="0 0 48 40" class="svg-icon" fill="currentColor" xmlns="http://www.w3.org/2000/svg">
    <path d="M45.136 7.777H2.863l-1.002-.823H46.14l-1.003.823zm-1.215 5.25v.504a.62.62 0 00-.132.393v.503a.62.62 0 00-.132.393v.503a.619.619 0 00-.132.393v.503a.62.62 0 00-.132.393v.508l-.002.004c-.011.013-.02.03-.03.045-.008.012-.016.022-.023.035-.009.017-.016.035-.023.054l-.017.038-.016.066-.009.037a.685.685 0 00-.008.11v21.386h-.487V17.509a.62.62 0 00-.13-.392v-.505a.62.62 0 00-.132-.393v-.503a.62.62 0 00-.132-.393v-.503a.62.62 0 00-.132-.393v-.503a.619.619 0 00-.132-.393v-.503a.63.63 0 00-.11-.364h2.02a.631.631 0 00-.109.364zm-8.75 25.868V17.509a.62.62 0 00-.131-.392v-.505a.62.62 0 00-.132-.393v-.503a.62.62 0 00-.132-.393v-.503a.62.62 0 00-.133-.393v-.503a.62.62 0 00-.132-.393v-.503a.631.631 0 00-.11-.364h2.022a.63.63 0 00-.11.364v.503a.619.619 0 00-.132.393v.503a.62.62 0 00-.132.393v.503a.62.62 0 00-.132.393v.503a.62.62 0 00-.132.393v.508a.62.62 0 00-.129.389v21.386h-.486zm-5.145 0v-4.973c0-.8-.077-1.601-.229-2.379l-.298-1.528a10.381 10.381 0 00-.609-2.017V21.88h3.859v17.015h-2.723zm-2.464 0V17.509a.62.62 0 00-.13-.392v-.505a.619.619 0 00-.133-.392v-.504a.619.619 0 00-.132-.393v-.503a.619.619 0 00-.132-.393v-.503a.619.619 0 00-.132-.393v-.503a.63.63 0 00-.11-.364h2.022a.63.63 0 00-.11.364v.503a.619.619 0 00-.132.393v.503a.619.619 0 00-.132.393v.503a.619.619 0 00-.132.393v.503a.62.62 0 00-.132.393v.508a.62.62 0 00-.129.389v21.386h-.486zm-7.608 0V17.509a.62.62 0 00-.13-.392v-.505a.62.62 0 00-.133-.393v-.503a.619.619 0 00-.132-.393v-.503a.619.619 0 00-.132-.393v-.503a.619.619 0 00-.132-.393v-.503a.63.63 0 00-.11-.364h2.021a.63.63 0 00-.11.364v.503a.619.619 0 00-.131.393v.503a.62.62 0 00-.132.393v.503a.619.619 0 00-.132.393v.504a.619.619 0 00-.132.392v.508a.62.62 0 00-.129.389v21.386h-.486zm-1.374-4.973c0-.713.069-1.425.204-2.116l.298-1.529.03-.14v8.758h-.532v-4.973zM15.251 21.88h3.86v5.595a10.19 10.19 0 00-.846 2.54l-.298 1.528a12.457 12.457 0 00-.229 2.38v4.972h-2.487V21.88zm-2.905 17.015V17.509a.62.62 0 00-.13-.392v-.505a.619.619 0 00-.133-.392v-.504a.62.62 0 00-.132-.393v-.503a.62.62 0 00-.132-.393v-.503a.619.619 0 00-.132-.393v-.503a.63.63 0 00-.11-.364h2.021a.63.63 0 00-.11.364v.503a.619.619 0 00-.131.393v.503a.619.619 0 00-.132.393v.503a.619.619 0 00-.133.393v.503a.62.62 0 00-.132.393v.508a.62.62 0 00-.128.389v21.386h-.486zm-7.608 0V17.509a.62.62 0 00-.131-.392v-.505a.62.62 0 00-.132-.392v-.504a.62.62 0 00-.132-.393v-.503a.62.62 0 00-.132-.393v-.503a.619.619 0 00-.132-.393v-.503a.63.63 0 00-.11-.364H5.99a.63.63 0 00-.11.364v.503a.62.62 0 00-.132.393v.503a.619.619 0 00-.132.393v.503a.619.619 0 00-.132.393v.503a.62.62 0 00-.132.393v.508a.62.62 0 00-.128.389v21.386h-.486zm6.107-25.474v.503c0 .155.05.294.132.393v.503c0 .155.05.295.132.393v.503c0 .155.05.295.132.393v.503c0 .155.05.295.132.393v.504c0 .153.05.292.13.39v20.996H6.067V17.897a.62.62 0 00.128-.388v-.504a.62.62 0 00.132-.393v-.503a.619.619 0 00.132-.393v-.503a.62.62 0 00.133-.393v-.503a.62.62 0 00.132-.393v-.503a.619.619 0 00.132-.393v-.364h3.858v.364c0 .155.05.294.132.393zm7.608 0v.503c0 .155.05.294.132.393v.503c0 .155.05.295.132.393v.503c0 .155.05.295.132.393v.503c0 .155.05.295.132.393v.504c0 .153.05.292.13.39v2.9h-4.28c-.233 0-.422.242-.422.54v17.556h-.735V17.897a.62.62 0 00.128-.388v-.504a.619.619 0 00.133-.393v-.503a.619.619 0 00.132-.393v-.503a.62.62 0 00.132-.393v-.503a.62.62 0 00.132-.393v-.503a.62.62 0 00.132-.393v-.364h3.858v.364c0 .155.05.294.132.393zm2.83 12.59a5.87 5.87 0 011.209-.908l1.39-.78 1.39.78a5.97 5.97 0 011.448 1.153v12.639h-5.438V26.012zm5.437-1.109c-.35-.305-.72-.57-1.11-.789l-1.56-.874a.337.337 0 00-.337 0l-1.558.874c-.302.17-.594.367-.873.59V21.88h5.438v3.022zm-.659-11.481v.503c0 .155.05.294.132.393v.503c0 .155.051.295.132.393v.503c0 .155.051.295.132.393v.503c0 .155.051.295.132.393v.504c0 .153.05.292.131.39v2.9h-5.438v-2.902a.621.621 0 00.129-.388v-.504a.619.619 0 00.132-.393v-.503a.62.62 0 00.132-.393v-.503a.62.62 0 00.132-.393v-.503a.619.619 0 00.132-.393v-.503a.62.62 0 00.132-.393v-.364h3.858v.364c0 .155.05.294.132.393zm3.123 25.474h-.294v-7.552l.09.463c.135.691.204 1.404.204 2.116v4.973zm4.485-25.474v.503c0 .155.051.294.132.393v.503c0 .155.051.295.132.393v.503c0 .155.051.295.132.393v.503c0 .155.051.295.133.393v.504c0 .153.05.292.13.39v20.996h-.737V21.34c0-.299-.189-.54-.421-.54h-4.28v-2.903a.621.621 0 00.129-.388v-.504a.619.619 0 00.132-.393v-.503a.62.62 0 00.132-.393v-.503a.62.62 0 00.132-.393v-.503a.62.62 0 00.132-.393v-.503a.62.62 0 00.132-.393v-.364h3.858v.364c0 .155.051.294.132.393zm7.608 0v.503c0 .155.051.294.133.393v.503c0 .155.05.295.132.393v.503c0 .155.05.295.132.393v.503c0 .155.05.295.132.393v.504c0 .153.05.292.13.39v20.996H36.5V17.897a.621.621 0 00.128-.388v-.504a.619.619 0 00.132-.393v-.503a.619.619 0 00.132-.393v-.503a.619.619 0 00.132-.393v-.503a.619.619 0 00.132-.393v-.503a.62.62 0 00.132-.393v-.364h3.858v.364c0 .155.051.294.132.393zm3.197-1.837H3.161v-.823H44.84v.823h-.366zM3.161 9.68H44.84v-.822H3.16v.822zm2.997-4.46h9.516l.628.654H5.53l.628-.654zM24 1.248l4.258 4.626h-8.516L24 1.248zm8.326 3.972h9.516l.628.654H31.698l.628-.654zm11.48.654l-1.55-1.614a.369.369 0 00-.265-.12h-9.814a.368.368 0 00-.266.12l-1.55 1.614h-.8L24.272.128a.353.353 0 00-.544 0l-5.289 5.746h-.8l-1.55-1.614a.368.368 0 00-.265-.12H6.009a.369.369 0 00-.266.12l-1.55 1.614H.422c-.187 0-.351.158-.404.388-.053.23.02.478.177.607L2.32 8.613v3.51c0 .3.189.541.421.541h.365v.364c0 .155.05.294.132.393v.503c0 .155.05.294.132.393v.503c0 .155.05.295.132.393v.503c0 .155.05.295.132.393v.503c0 .155.05.295.132.393v.504c0 .152.05.29.128.388v21.538c0 .298.189.54.421.54h8.598c-.008.033.632.033 1.918 0h28.856c.232 0 .42-.242.42-.54V17.897a.621.621 0 00.13-.388v-.504a.62.62 0 00.131-.393v-.503a.62.62 0 00.132-.393v-.503a.62.62 0 00.132-.393v-.503a.619.619 0 00.132-.393v-.503a.619.619 0 00.133-.393v-.364h.365c.232 0 .42-.242.42-.54V8.612l2.125-1.743c.157-.13.23-.376.177-.607l-4.177-.388z" fill="currentColor" fill-rule="evenodd" />
</svg>