<svg viewBox="0 0 140 80" fill="currentColor" xmlns="http://www.w3.org/2000/svg">
    <path d="M119.882 8.255a1.224 1.224 0 001.712-.271l2.348-3.232a1.226 1.226 0 00-1.983-1.44l-2.348 3.232a1.226 1.226 0 00.271 1.711zm3.442 4.737a1.227 1.227 0 001.544.787l3.8-1.235a1.225 1.225 0 00-.758-2.33l-3.799 1.234c-.644.21-.996.9-.787 1.544zm4.965 8.694a1.226 1.226 0 00.379-2.391l-3.8-1.235a1.226 1.226 0 00-.757 2.331l3.8 1.235c.125.04.253.06.378.06zm-6.33 6.842a1.224 1.224 0 101.983-1.44l-2.348-3.233a1.226 1.226 0 00-1.983 1.44l2.348 3.233zm-8.87-1.91v3.996a1.225 1.225 0 002.45 0v-3.995a1.225 1.225 0 00-2.45 0zm-4.343-3.034a1.226 1.226 0 00-1.712.271l-2.348 3.232a1.225 1.225 0 101.982 1.44l2.348-3.231a1.225 1.225 0 00-.27-1.712zm-8.407-1.898c.125 0 .253-.02.378-.06l3.8-1.235a1.226 1.226 0 00-.758-2.33l-3.799 1.234a1.226 1.226 0 00.379 2.39zm-.379-9.142l3.8 1.235a1.226 1.226 0 00.758-2.331l-3.8-1.234a1.226 1.226 0 00-.757 2.33zm7.074-4.56a1.224 1.224 0 101.982-1.44l-2.348-3.233a1.225 1.225 0 10-1.983 1.44l2.349 3.233zm7.28-1.538c.677 0 1.225-.549 1.225-1.226V1.225a1.225 1.225 0 00-2.45 0V5.22c0 .677.548 1.226 1.225 1.226zm5.011 9.474a5.017 5.017 0 00-5.011-5.012 5.017 5.017 0 00-5.011 5.012 5.017 5.017 0 005.011 5.01 5.017 5.017 0 005.011-5.01zm-5.011 7.462c-4.115 0-7.462-3.348-7.462-7.462 0-4.115 3.347-7.462 7.462-7.462s7.462 3.347 7.462 7.462c0 4.114-3.347 7.462-7.462 7.462zm2.704 49.646l.923-4.178-14.206-3.075a1.02 1.02 0 01-.075-.016l-12.7-2.75-.528.197-.02.008-5.549 2.06-2.795 3.11 4.415 1.835a1.225 1.225 0 01.486 1.897L83.61 76.31c.562-.273 1.087-.61 1.671-.984 1.728-1.108 3.877-2.485 7.864-2.485 3.985 0 6.134 1.377 7.86 2.483 1.565 1.002 2.694 1.725 5.272 1.725 2.582 0 3.709-.722 5.269-1.723 1.344-.862 2.949-1.884 5.472-2.297zm-42.274 2.295c1.536.985 2.654 1.698 5.136 1.723l4.157-5.19-4.507-1.874a1.225 1.225 0 01-.44-1.95l3.01-3.349-16.935-7.258-1.892-.41h-.004l-9.904-2.144-.031-.007-3.662-.793a1.1 1.1 0 01-.077-.016l-5.765-1.248-30.95-5.687 4.8 26.094c2.001.485 3.368 1.36 4.539 2.11 1.562 1.001 2.69 1.724 5.267 1.724 2.582 0 3.71-.722 5.269-1.723 1.728-1.108 3.877-2.485 7.864-2.485 3.985 0 6.134 1.377 7.861 2.483 1.564 1.002 2.692 1.725 5.271 1.725 2.582 0 3.709-.722 5.27-1.723 1.727-1.108 3.876-2.485 7.865-2.485 3.984 0 6.132 1.377 7.858 2.483zM11.55 39.887l.857 4.654 30.135 5.537-.373-2.052-28.418-5.213a1.225 1.225 0 01-.989-1.011l-.308-1.915h-.904zM51.11 51.875l1.262.274V30.952l-1.262.18V51.875zm13.634 2.952l1.054.228c.077.016.152.04.224.071l18.165 7.785 4.537-1.685V58.06l-5.323 1.81a1.228 1.228 0 01-.883-.036l-6.183-2.69a1.225 1.225 0 01-.737-1.123v-1.11l-7.594-3.028-3.26.626v2.317zm13.618.528V47.16l-.31.045v6.875c0 .01-.003.018-.003.027v1.11l.313.137zm12.813 5.193l.84.182v-6.033l-.84.12v5.731zm11.548 2.5v-9.884l-8.257 1.182v6.915l8.257 1.787zm3.291.713V52.693l-.84.12V63.58l.84.182zm33.116 13.627c-1.693 1.086-3.292 2.111-6.592 2.111-3.295 0-4.895-1.025-6.588-2.11-1.61-1.033-3.272-2.098-6.539-2.098-3.27 0-4.933 1.066-6.542 2.097-1.693 1.086-3.292 2.111-6.592 2.111-3.296 0-4.897-1.025-6.591-2.11-1.611-1.033-3.274-2.098-6.541-2.098-3.27 0-4.932 1.065-6.54 2.096-1.611 1.034-3.14 2.01-6.123 2.103l-.01.001h-.01c-.147.004-.295.008-.45.008-3.295 0-4.894-1.025-6.588-2.11-1.61-1.033-3.272-2.098-6.538-2.098-3.271 0-4.934 1.066-6.543 2.097-1.693 1.086-3.292 2.111-6.592 2.111-3.297 0-4.897-1.025-6.591-2.11-1.61-1.033-3.274-2.098-6.541-2.098-3.269 0-4.932 1.065-6.54 2.096-1.694 1.087-3.293 2.112-6.593 2.112-3.295 0-4.894-1.025-6.588-2.111-1.61-1.032-3.272-2.097-6.538-2.097-3.27 0-4.934 1.066-6.542 2.097-1.694 1.086-3.293 2.111-6.593 2.111a1.225 1.225 0 010-2.45c2.582 0 3.709-.723 5.27-1.724 1.727-1.108 3.876-2.485 7.865-2.485.262 0 .516.007.764.018L10.208 46.14a1.213 1.213 0 01-.127-.69l-1.208-6.567a1.225 1.225 0 011.205-1.447h3.42c.601 0 1.114.437 1.21 1.03l.336 2.092 28.4 5.21c.501.093.893.485.984.986l.696 3.826 3.535.765V41.87l-6.836 1.002a1.226 1.226 0 11-.355-2.425l7.191-1.054V38.23l-6.84.975a1.226 1.226 0 01-.346-2.426l7.186-1.025V30.07c0-.61.449-1.126 1.053-1.213l3.713-.53a1.225 1.225 0 011.398 1.213v5.335l6.85-.984a1.226 1.226 0 01.35 2.426l-7.2 1.034v1.143l6.847-1.002a1.226 1.226 0 01.356 2.425l-7.203 1.054v11.71l7.47 1.616v-2.799c0-.588.417-1.092.995-1.203l4.606-.884a1.23 1.23 0 01.685.065l7.022 2.8v-6.132c0-.012.003-.023.003-.035.002-.045.008-.088.014-.132.005-.037.01-.075.017-.111.01-.04.024-.079.037-.118.013-.037.025-.074.04-.109.017-.036.037-.07.056-.103.02-.034.039-.069.062-.1.023-.033.049-.062.075-.092.025-.029.05-.058.078-.085.029-.028.06-.052.093-.077.03-.023.06-.047.092-.068.033-.021.069-.039.105-.057.035-.018.07-.037.108-.052.036-.013.073-.023.11-.034.042-.012.083-.024.126-.03.012-.003.023-.008.035-.01l2.761-.395c.03-.004.058-.002.086-.003.03-.003.058-.01.088-.01.013 0 .025.004.039.004.041.002.08.007.121.013.042.005.082.01.122.019.037.01.072.022.108.034.04.013.08.026.118.043.034.016.065.035.097.053.036.021.072.04.105.064.032.023.06.05.09.075.03.025.06.05.085.077.029.03.053.062.079.095.023.03.046.058.067.09.021.034.039.07.057.106.018.036.037.07.051.107.014.036.024.074.035.112.012.041.023.082.03.124.003.013.008.024.01.036.003.03 0 .059.003.089.002.028.009.056.009.085V56.42l2.248.977 5.663-1.926v-1.718c0-.012.003-.023.004-.035a1.17 1.17 0 01.013-.131c.005-.038.01-.076.018-.112.01-.04.023-.078.036-.117.013-.037.025-.074.04-.11.017-.036.037-.068.056-.101.02-.036.04-.07.062-.103.023-.032.049-.06.074-.09.026-.03.05-.06.079-.086.03-.028.06-.052.093-.076.03-.024.06-.048.092-.07.033-.02.069-.038.104-.056.036-.018.072-.037.11-.052.035-.014.073-.023.11-.034.041-.011.082-.023.125-.03.012-.003.023-.008.036-.01l17.29-2.475c.03-.004.058-.001.087-.003.029-.002.057-.009.087-.009.012 0 .025.004.038.004.042.001.082.007.124.013.04.005.08.01.118.019.038.008.075.021.111.034.04.013.079.025.116.043.034.015.066.035.1.054.034.02.07.04.102.063.033.023.062.049.092.075.028.025.058.049.084.077.028.03.053.062.078.095.023.03.047.058.067.09.022.033.04.07.058.106.018.035.036.07.05.107.015.036.024.074.035.112.012.04.024.081.03.124.003.012.008.023.01.036.004.03.001.059.003.089.003.028.009.055.009.085V64.29l11.198 2.425a1.224 1.224 0 01.937 1.462l-1.031 4.665c3.882.037 5.999 1.39 7.702 2.48 1.562 1.003 2.69 1.725 5.267 1.725 2.581 0 3.709-.722 5.27-1.723a1.226 1.226 0 011.322 2.063zM54.38 68.575a1.226 1.226 0 01-1.559 1.891l-9.564-7.882-11.214 2.245a1.224 1.224 0 01-1.077-.306l-9.26-8.652a1.226 1.226 0 011.674-1.79l8.8 8.222 11.167-2.237c.36-.073.735.022 1.02.256l10.013 8.253z" fill="currentColor" fill-rule="evenodd" />
</svg>
