<svg viewBox="0 0 140 131" xmlns="http://www.w3.org/2000/svg">
    <path
        d="M60.528 94.634h-8.143c-.377 0-.738.15-1.005.418l-.923.926-.924-.926a1.42 1.42 0 00-1.005-.418h-8.143l-2.132-2.14 2.132-2.139h8.143c.377 0 .738-.15 1.005-.418l.924-.926.923.926c.267.268.628.418 1.005.418h8.143l2.132 2.14-2.132 2.139zm1.594-6.713a1.419 1.419 0 00-1.005-.418h-8.143l-1.512-1.517a1.418 1.418 0 00-2.01 0l-1.513 1.517h-8.142c-.377 0-.738.15-1.005.418l-3.554 3.565a1.43 1.43 0 000 2.017l3.554 3.565a1.42 1.42 0 001.005.418h8.142l1.513 1.517a1.415 1.415 0 002.01 0l1.512-1.517h8.143c.377 0 .738-.15 1.005-.418l3.553-3.565a1.43 1.43 0 000-2.017l-3.553-3.565zm52.294.295c0-.787-.636-1.426-1.421-1.426H87.41c-.785 0-1.421.639-1.421 1.426v39.932h-1.421V85.364h31.269v42.784h-1.422V88.216zm-14.056 8.565a1.399 1.399 0 00-.314 0c-.404.046-7.225.858-11.214 4.246V93.92h22.742v7.106c-3.989-3.388-10.81-4.2-11.214-4.246zm-11.528-5.713h22.742v-1.426H88.832v1.426zm-72.487 34.227c0-1.354 2.821-2.166 4.264-2.365 1.287.18 4.264.981 4.264 2.365v2.853h-8.528v-2.853zm8.528-17.113v1.682c-1.748-.898-3.725-1.155-4.107-1.198a1.402 1.402 0 00-.314 0c-.382.043-2.359.3-4.107 1.198v-1.682h8.528zm13.69-55.245c4.905-2.97 9.888-4.219 11.488-4.566.13.039.263.066.405.066.107 0 .21-.014.31-.036 1.723.382 6.514 1.625 11.278 4.493 7.344 4.422 11.275 10.543 11.705 18.209H26.927c.429-7.64 4.337-13.747 11.635-18.166zm11.979-25.526c-.029-.002-.056-.01-.085-.01.029 0 .056.006.085.01zM26.886 90.355h.123l2.132 2.14-2.132 2.139h-.123v-4.279zm46.904 4.279h-.122l-2.132-2.14 2.132-2.139h.122v4.279zm-46.903-16.4H73.79v-4.28H26.887v4.28zm0 27.096v-7.844h.71c.377 0 .738-.15 1.005-.418l3.554-3.565a1.43 1.43 0 000-2.017l-3.554-3.565a1.42 1.42 0 00-1.005-.418h-.71v-6.418H73.79v6.418h-.71c-.377 0-.739.15-1.005.418l-3.554 3.565a1.428 1.428 0 000 2.017l3.554 3.565a1.42 1.42 0 001.005.418h.71v7.844H26.886zm54.839 4.534c-1.748-.898-3.725-1.155-4.107-1.198a1.399 1.399 0 00-.314 0c-.382.043-2.359.3-4.107 1.198v-1.682h8.528v1.682zm-8.528 15.431c0-1.354 2.82-2.166 4.264-2.365 1.287.18 4.264.981 4.264 2.365v2.853h-8.528v-2.853zm-22.741-7.13c0-4.57 8.671-5.985 9.95-6.167 1.285.181 9.948 1.585 9.948 6.167v9.983H50.457v-9.983zm-11.37 7.13c0-1.354 2.82-2.166 4.263-2.365 1.287.18 4.264.981 4.264 2.365v2.853h-8.528v-2.853zm-11.371 0c0-1.354 2.821-2.166 4.264-2.365 1.286.18 4.264.981 4.264 2.365v2.853h-8.528v-2.853zm-11.37-5.704h8.527v1.682c-1.748-.898-3.725-1.155-4.107-1.198a1.402 1.402 0 00-.314 0c-.382.043-2.359.3-4.107 1.198v-1.682zm8.527-2.852h-8.528v-2.853c0-1.354 2.821-2.166 4.264-2.366 1.287.18 4.264.982 4.264 2.366v2.853zm14.213 2.852h8.528v1.682c-1.748-.898-3.725-1.155-4.107-1.198a1.402 1.402 0 00-.314 0c-.382.043-2.358.3-4.107 1.198v-1.682zm-2.842 0v1.682c-1.749-.898-3.725-1.155-4.107-1.198a1.402 1.402 0 00-.314 0c-.383.043-2.359.3-4.107 1.198v-1.682h8.528zm11.37-2.852h-8.528v-2.853c0-1.354 2.822-2.166 4.264-2.366 1.287.18 4.264.982 4.264 2.366v2.853zm-19.898-2.853c0-1.354 2.821-2.166 4.264-2.366 1.286.18 4.264.982 4.264 2.366v2.853h-8.528v-2.853zm54.01 2.853h-8.528v-2.853c0-1.354 2.82-2.166 4.264-2.366 1.287.18 4.264.982 4.264 2.366v2.853zm-8.528 2.852h8.528v1.682c-1.748-.898-3.725-1.155-4.107-1.198a1.399 1.399 0 00-.314 0c-.382.043-2.359.3-4.107 1.198v-1.682zm-2.843-11.41v4.555c-3.616-2.865-9.438-3.555-9.792-3.595a1.402 1.402 0 00-.314 0c-.354.04-6.176.73-9.792 3.595v-4.554h19.898zm-22.74 0v1.683c-1.749-.898-3.726-1.155-4.108-1.198a1.402 1.402 0 00-.314 0c-.382.043-2.358.3-4.107 1.198v-1.682h8.528zm-11.371 0v1.683c-1.749-.898-3.725-1.155-4.107-1.198a1.402 1.402 0 00-.314 0c-.383.043-2.359.3-4.107 1.198v-1.682h8.528zm62.575-52.766h5.814l.614 27.097h-7.042l.614-27.097zm.743-32.8h4.328l.358 15.812c-1.68-.13-3.365-.13-5.044 0l.358-15.813zm9.981 24.243h-1.776v-5.055a29.74 29.74 0 011.776.423v4.632zm-4.619-5.501v5.501h-1.777V41.22c.593.028 1.186.074 1.777.138zm-4.62-.138v5.64h-1.776v-5.502c.591-.064 1.184-.11 1.777-.138zm-6.395 1.007c.589-.16 1.182-.3 1.776-.423v5.055H93.91v-4.632zm33.3 65.956v1.682c-1.75-.898-3.726-1.155-4.108-1.198a1.399 1.399 0 00-.314 0c-.382.043-2.359.3-4.107 1.198v-1.682h8.528zm-8.529 17.113c0-1.354 2.821-2.166 4.265-2.365 1.286.18 4.263.981 4.263 2.365v2.853h-8.528v-2.853zm8.528-8.556h-8.528v-2.853c0-1.354 2.821-2.166 4.265-2.366 1.286.18 4.263.982 4.263 2.366v2.853zm-8.528 2.852h8.528v1.682c-1.748-.898-3.725-1.155-4.107-1.198a1.399 1.399 0 00-.314 0c-.382.043-2.359.3-4.107 1.198v-1.682zm19.899 8.557h-8.528v-19.966h8.528c.785 0 1.421-.639 1.421-1.426 0-.788-.636-1.426-1.421-1.426H118.68V83.938c0-.788-.636-1.426-1.421-1.426h-9.17l-.618-27.327c.39-.254.65-.694.65-1.196.786 0 1.422-.639 1.422-1.426.785 0 1.422-.639 1.422-1.426.784 0 1.42-.639 1.42-1.426v-8.557c0-.09-.01-.177-.025-.262-.006-.029-.014-.056-.021-.084a1.429 1.429 0 00-.088-.252c-.024-.051-.05-.1-.08-.147-.015-.025-.029-.05-.046-.074a1.457 1.457 0 00-.136-.166l-.023-.026a1.38 1.38 0 00-.194-.16c-.02-.015-.043-.026-.064-.04a1.442 1.442 0 00-.247-.12c-.026-.01-.05-.024-.078-.032a32.933 32.933 0 00-4.284-1.01l-.399-17.625a1.424 1.424 0 00-1.42-1.394h-2.133v-.386a2.853 2.853 0 001.422-2.466 2.853 2.853 0 00-1.422-2.467v-.342a2.582 2.582 0 000-4.298v-.996a2.307 2.307 0 000-3.624V3.489A2.036 2.036 0 00101.726 0a2.036 2.036 0 00-1.421 3.49v1.693a2.307 2.307 0 000 3.625v.996a2.582 2.582 0 000 4.298v.342a2.853 2.853 0 00-1.422 2.467c0 1.052.573 1.972 1.422 2.466v.386h-2.132c-.773 0-1.404.619-1.421 1.394l-.4 17.625c-1.44.24-2.87.574-4.283 1.01-.027.008-.052.021-.078.031a1.19 1.19 0 00-.247.121c-.02.014-.044.025-.065.04-.069.047-.134.1-.193.16l-.023.026a1.46 1.46 0 00-.137.166c-.017.024-.03.05-.046.074a1.418 1.418 0 00-.167.399c-.007.028-.015.055-.02.084a1.424 1.424 0 00-.027.262v8.557c0 .787.636 1.426 1.421 1.426 0 .787.637 1.426 1.422 1.426 0 .787.636 1.426 1.421 1.426 0 .502.26.942.65 1.196l-.618 27.327H83.147c-.785 0-1.421.638-1.421 1.426v21.392h-5.093V72.529c0-9.275-4.54-16.91-13.127-22.08-4.735-2.851-9.422-4.198-11.628-4.72v-.173a2.854 2.854 0 001.421-2.467 2.854 2.854 0 00-1.421-2.466v-.343a2.582 2.582 0 000-4.297v-.996a2.306 2.306 0 000-3.625v-1.693a2.036 2.036 0 00-1.421-3.49 2.036 2.036 0 00-1.422 3.49v1.693a2.308 2.308 0 000 3.624v.997a2.582 2.582 0 000 4.297v.343a2.854 2.854 0 00-1.42 2.466c0 1.053.572 1.972 1.42 2.467v.117c-2.092.48-6.952 1.818-11.865 4.776-8.587 5.17-13.126 12.805-13.126 22.08v32.8H1.42c-.785 0-1.421.64-1.421 1.427s.636 1.426 1.421 1.426h12.082v19.966H1.42A1.426 1.426 0 001.421 131h85.99c.785 0 1.421-.639 1.421-1.426v-22.818c0-2.3 1.832-4.186 5.444-5.606 2.603-1.023 5.263-1.425 5.927-1.514.666.09 3.325.492 5.927 1.514 3.612 1.42 5.444 3.307 5.444 5.606v22.818c0 .787.636 1.426 1.42 1.426h25.585c.785 0 1.421-.639 1.421-1.426 0-.788-.636-1.426-1.421-1.426z"
        fill="currentColor"
        fill-rule="evenodd"
    />
</svg>