<svg viewBox="0 0 51 51" version="1.1" xmlns="http://www.w3.org/2000/svg" xmlns:xlink="http://www.w3.org/1999/xlink" fill="currentColor" width="51px" height="51px">
    <defs>
        <path d="M7.128125,27.603125 L14.33125,27.603125 L14.33125,23.678125 L7.128125,23.678125 L7.128125,27.603125 Z M16.0875,28.4875 C16.096875,28.690625 16.009375,28.921875 15.85,29.09375 C15.684375,29.2625 15.45,29.365625 15.209375,29.365625 L6.25,29.365625 C5.76875,29.365625 5.375,28.971875 5.375,28.4875 L5.375,22.809375 C5.375,22.325 5.76875,21.934375 6.25,21.934375 L15.209375,21.934375 C15.69375,21.934375 16.0875,22.325 16.0875,22.809375 L16.0875,28.4875 Z M35.665625,27.603125 L42.871875,27.603125 L42.871875,23.678125 L35.665625,23.678125 L35.665625,27.603125 Z M44.625,28.4875 C44.625,28.971875 44.234375,29.365625 43.75,29.365625 L34.790625,29.365625 C34.30625,29.365625 33.9125,28.971875 33.9125,28.4875 L33.9125,22.809375 C33.9125,22.325 34.30625,21.934375 34.790625,21.934375 L43.75,21.934375 C44.234375,21.934375 44.625,22.325 44.625,22.809375 L44.625,28.4875 Z M5.634375,10.4375 L44.35625,10.4375 L44.35625,5.8625 L5.634375,5.8625 L5.634375,10.4375 Z M45.80625,1.44375 L4.2875,1.44375 L4.2375,4.109375 L45.753125,4.109375 L45.80625,1.44375 Z M1.753125,14.7375 L48.234375,14.7375 L48.234375,12.20625 L1.753125,12.20625 L1.753125,14.7375 Z M19.55,19.490625 L30.540625,19.490625 L30.540625,16.4875 L19.55,16.4875 L19.55,19.490625 Z M32.303125,19.490625 L46.490625,19.490625 L46.490625,16.4875 L32.303125,16.4875 L32.303125,19.490625 Z M3.603125,19.490625 L17.79375,19.490625 L17.79375,16.4875 L3.603125,16.4875 L3.603125,19.490625 Z M39.26875,32.0625 C41.275,32.0625 42.9125,33.696875 42.9125,35.70625 L42.9125,48.240625 L46.5,48.240625 L46.5,21.25625 L3.509375,21.25625 L3.509375,48.24375 L7.09375,48.24375 L7.09375,35.70625 C7.09375,33.696875 8.728125,32.0625 10.7375,32.0625 C12.74375,32.0625 14.378125,33.696875 14.378125,35.70625 L14.378125,48.240625 L17.9625,48.240625 L17.9625,28.540625 C17.9625,24.659375 21.121875,21.503125 25.003125,21.503125 C28.8875,21.503125 32.04375,24.659375 32.04375,28.540625 L32.04375,48.24375 L35.628125,48.24375 L35.628125,35.70625 C35.628125,33.696875 37.2625,32.0625 39.26875,32.0625 Z M49.1125,10.446875 C49.596875,10.446875 49.9875,10.840625 49.9875,11.325 L49.9875,15.6125 C49.9875,16.09375 49.596875,16.4875 49.1125,16.4875 L48.25,16.4875 L48.25,49.121875 C48.25,49.60625 47.85625,50 47.371875,50 L42.025,50 C41.540625,50 41.146875,49.60625 41.146875,49.121875 L41.146875,35.70625 C41.146875,34.665625 40.303125,33.81875 39.2625,33.81875 C38.221875,33.81875 37.375,34.665625 37.375,35.70625 L37.375,49.121875 C37.375,49.60625 36.98125,50 36.496875,50 L31.15,50 C30.665625,50 30.271875,49.60625 30.271875,49.121875 L30.271875,28.540625 C30.271875,25.628125 27.90625,23.2625 24.99375,23.2625 C22.084375,23.2625 19.715625,25.628125 19.715625,28.540625 L19.715625,49.121875 C19.715625,49.60625 19.321875,50 18.840625,50 L13.49375,50 C13.009375,50 12.615625,49.60625 12.615625,49.121875 L12.615625,35.70625 C12.615625,34.665625 11.76875,33.81875 10.728125,33.81875 C9.6875,33.81875 8.840625,34.665625 8.840625,35.70625 L8.840625,49.121875 C8.840625,49.60625 8.446875,50 7.965625,50 L2.61875,50 C2.134375,50 1.740625,49.60625 1.740625,49.121875 L1.740625,16.4875 L0.878125,16.4875 C0.39375,16.4875 9.32587341e-14,16.09375 9.32587341e-14,15.6125 L9.32587341e-14,11.325 C9.32587341e-14,10.840625 0.39375,10.446875 0.878125,10.446875 L3.88125,10.446875 L3.88125,5.871875 L3.359375,5.871875 C2.875,5.871875 2.48125,5.478125 2.48125,4.99375 L2.53125,0.878125 C2.53125,0.39375 2.925,0 3.409375,0 L46.678125,0 C47.1625,0 47.55625,0.39375 47.55625,0.878125 L47.509375,4.99375 C47.509375,5.478125 47.115625,5.871875 46.628125,5.871875 L46.109375,5.871875 L46.109375,10.446875 L49.1125,10.446875 Z M16.25625,30.3315625 C16.740625,30.3315625 17.13125,30.7221875 17.13125,31.2034375 L17.13125,44.7846875 C17.13125,45.2690625 16.740625,45.6628125 16.25625,45.6628125 C15.771875,45.6628125 15.378125,45.2690625 15.378125,44.7846875 L15.378125,31.2034375 C15.378125,30.7221875 15.771875,30.3315625 16.25625,30.3315625 Z M33.845,30.3315625 C34.329375,30.3315625 34.72,30.7221875 34.72,31.2034375 L34.72,44.7846875 C34.72,45.2690625 34.329375,45.6628125 33.845,45.6628125 C33.360625,45.6628125 32.966875,45.2690625 32.966875,44.7846875 L32.966875,31.2034375 C32.966875,30.7221875 33.360625,30.3315625 33.845,30.3315625 Z M43.9159375,31.204375 C43.9159375,30.723125 44.3096875,30.3325 44.7940625,30.3325 C45.2815625,30.3325 45.6721875,30.723125 45.6721875,31.204375 L45.6721875,44.785625 C45.6815625,44.991875 45.5909375,45.223125 45.4315625,45.391875 C45.2659375,45.566875 45.0315625,45.66375 44.7940625,45.66375 C44.3096875,45.66375 43.9159375,45.27 43.9159375,44.785625 L43.9159375,31.204375 Z M5.3128125,30.3315625 C5.7971875,30.3315625 6.1878125,30.7221875 6.1878125,31.2034375 L6.1878125,44.7846875 C6.1878125,45.2690625 5.7971875,45.6628125 5.3128125,45.6628125 C4.8284375,45.6628125 4.4346875,45.2690625 4.4346875,44.7846875 L4.4346875,31.2034375 C4.4346875,30.7221875 4.8284375,30.3315625 5.3128125,30.3315625 Z" id="milan" />
    </defs>
    <g stroke="none" stroke-width="1" fill="none" fill-rule="evenodd">
        <g id="intl-Hotel-City-landing---Milan---Desktop" transform="translate(-774.000000, -138.000000)">
            <g transform="translate(649.000000, 94.000000)">
                <g transform="translate(87.500000, 44.500000)">
                    <g>
                        <g id="Icon-/-Tours-Homepage-/-milan" transform="translate(38.000000, 0.000000)">
                            <mask id="milan-mask" fill="white">
                                <use xlink:href="#milan" />
                            </mask>
                            <use id="Mask" fill="#000000" xlink:href="#milan" />
                            <g id="Color-Palettes-/-White-Color" mask="url(#milan-mask)" fill="currentColor">
                                <rect id="White-Color" x="0" y="0" width="50" height="50" />
                            </g>
                        </g>
                    </g>
                </g>
            </g>
        </g>
    </g>
</svg>
