<svg viewBox="0 0 51 51" version="1.1" xmlns="http://www.w3.org/2000/svg" xmlns:xlink="http://www.w3.org/1999/xlink" fill="currentColor" width="51px" height="51px">
    <defs>
        <path d="M6.703125,41.5465625 C6.303125,41.0465625 6.115625,40.3746875 6.115625,39.4684375 C6.115625,38.9496875 6.290625,38.4590625 6.659375,37.9496875 C6.565625,38.5746875 6.51875,39.1340625 6.51875,39.6153125 C6.51875,40.1684375 6.58125,40.8184375 6.703125,41.5465625 L6.703125,41.5465625 Z M20.365625,40.2059375 C20.815625,40.3840625 21.1,40.7121875 21.1,41.0590625 C21.1,41.0746875 21.103125,41.1121875 21.103125,41.1528125 C21.10625,41.1903125 21.109375,41.2246875 21.109375,41.2403125 C21.109375,41.8809375 21.63125,42.4028125 22.275,42.4028125 C22.915625,42.4028125 23.440625,41.8809375 23.440625,41.2403125 C23.440625,41.2278125 23.44375,41.1965625 23.44375,41.1621875 C23.446875,41.1184375 23.45,41.0778125 23.45,41.0590625 C23.45,40.5184375 24.121875,40.0621875 24.915625,40.0621875 C25.7125,40.0621875 26.384375,40.5184375 26.384375,41.0590625 L26.384375,41.2403125 C26.384375,41.8809375 26.90625,42.4028125 27.55,42.4028125 C28.19375,42.4028125 28.715625,41.8809375 28.715625,41.2403125 L28.721875,41.0559375 C28.721875,40.5246875 29.40625,40.0590625 30.1875,40.0590625 C30.6625,40.0590625 31.10625,40.2215625 31.4,40.5090625 L31.721875,43.6028125 L18.3375,43.6028125 C19.525,42.8840625 20.20625,41.7403125 20.365625,40.2059375 L20.365625,40.2059375 Z M21.309375,36.6059375 L21.30625,36.6496875 C21.30625,36.6934375 21.303125,36.7559375 21.303125,36.7871875 C21.303125,37.4246875 21.821875,37.9434375 22.459375,37.9434375 C23.1,37.9434375 23.61875,37.4246875 23.61875,36.7871875 L23.615625,36.6059375 C23.615625,36.1434375 24.221875,35.7434375 24.915625,35.7434375 C25.609375,35.7434375 26.215625,36.1434375 26.2125,36.6371875 C26.209375,36.6809375 26.20625,36.7528125 26.20625,36.7871875 C26.20625,37.4246875 26.725,37.9434375 27.3625,37.9434375 C28,37.9434375 28.51875,37.4246875 28.51875,36.7871875 C28.51875,36.7528125 28.515625,36.6809375 28.5125,36.6059375 C28.5125,36.1434375 29.121875,35.7434375 29.815625,35.7434375 C30.2875,35.7434375 30.725,35.9215625 30.959375,36.2121875 L31.190625,38.4653125 C29.765625,38.0528125 28.334375,38.5403125 27.55,39.5184375 C26.953125,38.7746875 25.965625,38.3215625 24.915625,38.3215625 C23.8625,38.3215625 22.871875,38.7746875 22.275,39.5246875 C21.803125,38.9309375 21.0875,38.5215625 20.265625,38.3809375 C20.05625,37.6559375 19.640625,36.9590625 18.9875,36.2653125 L19.003125,36.0715625 C19.259375,35.8621875 19.621875,35.7434375 20.009375,35.7434375 C20.7,35.7434375 21.309375,36.1434375 21.309375,36.6059375 L21.309375,36.6059375 Z M21.346875,32.3121875 L21.35,32.4903125 C21.35,33.1215625 21.8625,33.6340625 22.49375,33.6340625 C23.125,33.6340625 23.6375,33.1215625 23.6375,32.4903125 L23.64375,32.3121875 C23.64375,31.8621875 24.2375,31.4684375 24.915625,31.4684375 C25.596875,31.4684375 26.190625,31.8621875 26.190625,32.3121875 L26.190625,32.4903125 C26.190625,33.1215625 26.703125,33.6340625 27.334375,33.6340625 C27.965625,33.6340625 28.478125,33.1215625 28.478125,32.4903125 L28.478125,32.3090625 C28.478125,31.8621875 29.071875,31.4684375 29.753125,31.4684375 C30.0125,31.4684375 30.265625,31.5278125 30.484375,31.6340625 L30.740625,34.1371875 C30.421875,34.0465625 30.115625,33.9996875 29.815625,33.9996875 C28.8375,33.9996875 27.940625,34.3965625 27.3625,35.0715625 C26.79375,34.3996875 25.89375,34.0028125 24.915625,34.0028125 C23.940625,34.0028125 23.0375,34.4028125 22.4625,35.0809375 C21.8875,34.4028125 20.984375,34.0028125 20.009375,34.0028125 C19.7375,34.0028125 19.45625,34.0371875 19.175,34.1090625 L19.39375,31.6215625 C20.271875,31.2215625 21.346875,31.7153125 21.346875,32.3121875 L21.346875,32.3121875 Z M29.753125,29.7278125 C28.790625,29.7278125 27.903125,30.1184375 27.334375,30.7809375 C26.765625,30.1184375 25.875,29.7278125 24.915625,29.7278125 C23.95625,29.7278125 23.0625,30.1184375 22.49375,30.7871875 C21.921875,30.1184375 21.03125,29.7278125 20.06875,29.7278125 C19.909375,29.7278125 19.740625,29.7434375 19.553125,29.7684375 L19.63125,28.9059375 L30.20625,28.9059375 L30.29375,29.7746875 C30.090625,29.7434375 29.921875,29.7278125 29.753125,29.7278125 L29.753125,29.7278125 Z M18.271875,39.6153125 C18.271875,39.1340625 18.225,38.5746875 18.13125,37.9496875 C18.5,38.4590625 18.675,38.9528125 18.675,39.4684375 C18.675,40.3746875 18.4875,41.0465625 18.090625,41.5465625 C18.2125,40.8153125 18.271875,40.1684375 18.271875,39.6153125 L18.271875,39.6153125 Z M20.659375,27.1559375 L21.059375,25.5621875 L22.009375,27.1559375 L20.659375,27.1559375 Z M24.91875,25.2465625 L25.69375,27.1559375 L24.128125,27.1559375 L24.91875,25.2465625 Z M26.0125,14.6059375 L28.159375,23.2059375 C28.1375,23.2278125 28.11875,23.2528125 28.096875,23.2871875 L26.85,25.3653125 L25.734375,22.6215625 C25.603125,22.2934375 25.2875,22.0809375 24.928125,22.0778125 C24.575,22.0778125 24.25625,22.2871875 24.121875,22.6121875 L22.978125,25.3778125 L21.725,23.2840625 C21.7,23.2496875 21.675,23.2215625 21.65,23.1965625 L23.8,14.6059375 L26.0125,14.6059375 Z M24.865625,9.9934375 C23.1875,9.9934375 23.1875,9.7465625 23.1875,9.3340625 C23.1875,9.1184375 23.528125,8.8403125 24.028125,8.4559375 C24.296875,8.2496875 24.59375,8.0184375 24.865625,7.7434375 C25.14375,8.0278125 25.45,8.2621875 25.721875,8.4715625 C26.203125,8.8371875 26.54375,9.1153125 26.54375,9.3340625 C26.54375,9.7465625 26.54375,9.9934375 24.865625,9.9934375 L24.865625,9.9934375 Z M25.109375,11.7340625 L25.109375,12.8621875 L24.703125,12.8621875 L24.703125,11.7340625 C24.846875,11.7309375 24.9625,11.7340625 25.109375,11.7340625 L25.109375,11.7340625 Z M27.809375,27.1559375 L28.753125,25.5778125 L29.146875,27.1559375 L27.809375,27.1559375 Z M8.259375,46.4621875 L15.815625,46.4621875 L15.815625,44.6278125 L8.259375,44.6278125 L8.259375,46.4621875 Z M16.53125,39.6153125 C16.53125,40.5746875 16.29375,41.7559375 16.090625,42.6121875 C15.7375,42.6871875 15.34375,42.7465625 14.915625,42.7871875 C15.115625,41.7278125 15.4125,39.9153125 15.4125,38.3934375 C15.4125,37.5403125 15.321875,36.5028125 15.1375,35.3090625 L15.171875,35.3340625 C15.1875,35.3559375 15.20625,35.3715625 15.23125,35.3934375 C15.815625,35.8903125 16.2125,37.3028125 16.353125,37.8746875 C16.46875,38.5496875 16.53125,39.1371875 16.53125,39.6153125 L16.53125,39.6153125 Z M11.121875,38.3934375 C11.121875,36.8496875 11.465625,34.9090625 11.675,33.8871875 C11.753125,33.5746875 11.89375,33.2809375 12.190625,32.8059375 C12.2625,32.6996875 12.334375,32.5965625 12.39375,32.4965625 C12.45,32.5840625 12.50625,32.6715625 12.575,32.7621875 L12.59375,32.7996875 C12.8875,33.2715625 13.0625,33.5996875 13.14375,34.0059375 C13.384375,35.2278125 13.66875,36.9809375 13.66875,38.3934375 C13.66875,39.9090625 13.3375,41.8059375 13.125,42.8809375 C12.653125,42.8871875 12.140625,42.8871875 11.671875,42.8809375 C11.4875,41.9715625 11.121875,39.9621875 11.121875,38.3934375 L11.121875,38.3934375 Z M8.2625,39.6153125 C8.2625,39.1465625 8.31875,38.5809375 8.43125,37.9278125 C8.578125,37.3278125 8.978125,35.8934375 9.5625,35.3965625 C9.596875,35.3684375 9.621875,35.3403125 9.615625,35.3403125 L9.65,35.3121875 C9.471875,36.5059375 9.378125,37.5403125 9.378125,38.3965625 C9.378125,39.8528125 9.640625,41.5528125 9.878125,42.7871875 C9.45,42.7465625 9.05625,42.6871875 8.703125,42.6121875 C8.496875,41.7559375 8.2625,40.5746875 8.2625,39.6153125 L8.2625,39.6153125 Z M43.70625,40.1809375 C43.70625,41.6715625 43.115625,42.0840625 40.63125,42.1590625 C40.971875,41.8746875 41.36875,41.5309375 41.71875,41.1778125 C42.2125,40.6871875 42.765625,40.0403125 43.365625,39.2559375 C43.596875,39.5778125 43.70625,39.8746875 43.70625,40.1809375 L43.70625,40.1809375 Z M40.0125,36.1871875 C39.35625,37.0746875 38.7375,37.8153125 38.225,38.3309375 C37.409375,39.1403125 36.30625,39.9746875 35.453125,40.5715625 C35.440625,40.4528125 35.434375,40.3215625 35.434375,40.1809375 C35.434375,39.2934375 36.340625,38.5778125 37.3875,37.7434375 C38.13125,37.1559375 38.9625,36.4965625 39.571875,35.6590625 C39.69375,35.8278125 39.840625,35.9996875 40.0125,36.1871875 L40.0125,36.1871875 Z M39.453125,39.5590625 C40,39.0153125 40.621875,38.2840625 41.296875,37.3809375 C41.415625,37.4778125 41.534375,37.5746875 41.65625,37.6653125 L41.753125,37.7434375 C41.875,37.8371875 41.99375,37.9371875 42.109375,38.0309375 C41.503125,38.8340625 40.95625,39.4778125 40.4875,39.9465625 C39.85625,40.5746875 38.95625,41.3121875 37.809375,42.1278125 C37.2875,42.0871875 36.878125,42.0215625 36.559375,41.9278125 C37.76875,41.0715625 38.74375,40.2746875 39.453125,39.5590625 L39.453125,39.5590625 Z M36.85625,45.0434375 L41.553125,45.0434375 L41.553125,43.9246875 L36.85625,43.9246875 L36.85625,45.0434375 Z M45.44375,39.9313645 C45.44375,38.2170788 44.125,37.1736005 42.8375,36.154967 C41.603125,35.1798117 40.440625,34.2636627 40.440625,32.8257745 L40.434375,30.1487558 L41.709375,30.1487558 C42.1875,30.1487558 42.578125,29.7605571 42.578125,29.2822962 C42.578125,28.8040353 42.1875,28.4158366 41.709375,28.4158366 L40.434375,28.4158366 L40.434375,27.1487558 C40.434375,26.6736005 40.04375,26.2854018 39.565625,26.2854018 C39.08125,26.2854018 38.690625,26.6736005 38.690625,27.1487558 L38.690625,28.4158366 L37.41875,28.4158366 C36.9375,28.4158366 36.546875,28.8040353 36.546875,29.2822962 C36.546875,29.7605571 36.9375,30.1487558 37.41875,30.1487558 L38.690625,30.1487558 L38.690625,32.8816751 C38.6625,34.291613 37.515625,35.1953397 36.296875,36.1611782 C35.015625,37.1736005 33.69375,38.2170788 33.69375,39.9313645 C33.69375,41.3506192 34.159375,42.32888 35.11875,42.9189422 L35.11875,45.5897496 L35.115625,45.6425446 L34.953125,44.1083832 C34.90625,43.6673894 34.534375,43.3319856 34.0875,43.3319856 L33.471875,43.3319856 L31.95625,28.7263956 L32.415625,28.7263956 C32.89375,28.7263956 33.284375,28.3381968 33.284375,27.8630415 C33.284375,27.3816751 32.89375,26.9934763 32.415625,26.9934763 L30.946875,26.9872651 L27.5375,13.4375757 C27.453125,13.102172 27.18125,12.8568304 26.846875,12.7947186 L26.846875,11.412731 C27.803125,11.0649049 28.284375,10.3475136 28.284375,9.27608502 C28.284375,8.19533967 27.45625,7.55869371 26.784375,7.04627135 C26.134375,6.54627135 25.7375,6.21086762 25.73125,5.71086762 L25.73125,3.85372477 L26.99375,3.85372477 C27.475,3.85372477 27.865625,3.46552601 27.865625,2.98726514 C27.865625,2.51210986 27.475,2.1239111 26.99375,2.1239111 L25.73125,2.1239111 L25.73125,0.863041537 C25.73125,0.387886258 25.34375,-0.0003125 24.8625,-0.0003125 C24.38125,-0.0003125 23.990625,0.387886258 23.990625,0.863041537 L23.990625,2.1239111 L22.703125,2.1239111 C22.225,2.1239111 21.834375,2.51210986 21.834375,2.98726514 C21.834375,3.46552601 22.225,3.85372477 22.703125,3.85372477 L23.990625,3.85372477 L23.990625,5.7512403 C23.978125,6.22018439 23.5875,6.55248253 22.94375,7.04627135 C22.24375,7.58353843 21.446875,8.19533967 21.446875,9.27608502 C21.446875,10.3785695 21.95625,11.102172 22.9625,11.4406813 L22.9625,12.7947186 C22.63125,12.8568304 22.35625,13.102172 22.271875,13.4375757 L18.865625,26.9872651 L18.83125,26.9872651 C18.8,26.9872651 18.775,26.9903707 18.78125,26.9934763 L17.396875,26.9934763 C16.915625,26.9934763 16.528125,27.3816751 16.528125,27.8599359 C16.528125,28.3381968 16.915625,28.7263956 17.396875,28.7263956 L17.878125,28.7263956 L17.3625,34.6176999 C17.184375,34.4748428 17,34.3350912 16.81875,34.1953397 C14.990625,32.8009297 13.26875,31.4841595 13.2625,29.2481347 L13.2625,28.018321 L14.5375,28.018321 C15.015625,28.018321 15.40625,27.6301223 15.40625,27.1487558 C15.40625,26.6736005 15.015625,26.2854018 14.5375,26.2854018 L13.2625,26.2854018 L13.2625,25.018321 C13.2625,24.5400602 12.871875,24.1518614 12.390625,24.1518614 C11.909375,24.1518614 11.521875,24.5400602 11.521875,25.018321 L11.521875,26.2854018 L10.246875,26.2854018 C9.7625,26.2854018 9.375,26.6736005 9.375,27.1487558 C9.375,27.6301223 9.7625,28.018321 10.246875,28.018321 L11.521875,28.018321 L11.521875,29.3785695 C11.465625,31.5276378 9.76875,32.8226689 7.971875,34.1953397 C6.203125,35.5493769 4.375,36.9531036 4.375,39.22329 C4.375,41.1642838 5.096875,42.5649049 6.528125,43.3847807 C6.521875,43.4189422 6.51875,43.4499981 6.51875,43.4872651 L6.51875,47.0152155 L6.371875,49.9996875 L8.1125,49.9996875 L8.21875,47.9065198 L15.859375,47.9065198 L15.965625,49.9996875 L17.70625,49.9996875 L17.559375,47.0276378 L17.559375,45.0649049 L33.303125,45.0649049 L33.803125,49.8599359 L33.81875,49.9996875 L36.521875,49.9996875 L36.79375,46.4934763 L41.64375,46.4934763 L42.0375,49.9996875 L43.790625,49.9996875 L43.29375,45.586644 L43.29375,43.2574515 C44.740625,42.7512403 45.44375,41.6611782 45.44375,39.9313645 L45.44375,39.9313645 Z" id="moscow" />
    </defs>
    <g stroke="none" stroke-width="1" fill="none" fill-rule="evenodd">
        <g id="intl-Hotel-City-landing---Moscow---Desktop" transform="translate(-774.000000, -138.000000)">
            <g transform="translate(649.000000, 94.000000)">
                <g transform="translate(87.500000, 44.500000)">
                    <g>
                        <g id="Icon-/-Tours-Homepage-/-moscow" transform="translate(38.000000, 0.000000)">
                            <mask id="moscow-mask" fill="white">
                                <use xlink:href="#moscow" />
                            </mask>
                            <use id="Mask" fill="#000000" xlink:href="#moscow" />
                            <g id="Color-Palettes-/-White-Color" mask="url(#moscow-mask)" fill="currentColor">
                                <g transform="translate(0.000000, 0.000000)" id="White-Color">
                                    <rect x="0" y="0" width="50" height="50" />
                                </g>
                            </g>
                        </g>
                    </g>
                </g>
            </g>
        </g>
    </g>
</svg>
