<svg
    class="svg-icon"
    width="60px"
    height="60px"
    xmlns="http://www.w3.org/2000/svg"
    viewBox="0 0 60 60"
>
    <path fill="currentColor" fill-rule="nonzero" d="M41.751 45.191v-3.733h-1.595l-.364-.791c-.783-1.707-1.743-4.873-2.854-9.414h1.397v-3.657H36.08a304.63 304.63 0 01-.892-4.058l-1.234.262c.187.878.38 1.763.576 2.648l-3.62-3.224 2.465-2.196.118.576 1.235-.255a494.08 494.08 0 01-2.213-11.396h1.39l.63-.63V7.026l-.63-.63h-2.31L29.957 0l-1.639 6.396h-2.31l-.63.63v2.297l.63.63h1.391c-.435 2.41-1.891 10.311-3.552 17.643h-2.284v3.658h1.426c-1.114 4.552-2.079 7.718-2.868 9.412l-.369.793h-1.604v3.731a1161.33 1161.33 0 01-6.088 12.827c-.232.482-.226.982.018 1.37.245.39.693.613 1.229.613h6.82a7.23 7.23 0 001.022-.083h.005l.185-.006c.422-.01.557-.12.598-.663l.015-.001-.007-.126c.011-.24.01-.55.01-.951 0-.023.01-2.303 1.027-4.531 1.32-2.888 3.669-4.352 6.98-4.352 7.878 0 7.98 8.521 7.98 8.883 0 .399 0 .707.011.947l-.007.13.015.001c.042.542.176.653.599.663.042.007.072 0 .107-.006l.083.012c.224.031.599.083 1.021.083h6.836c.536 0 .984-.223 1.227-.613.245-.388.25-.888.015-1.37-.031-.065-3.17-6.517-6.097-12.826zm1.037 5.18l-3.06-1.82 1.294-1.939a824.904 824.904 0 001.766 3.759zm-17.343-8.913l1.42-6.582h6.182l1.406 6.582h-9.008zm7.046 1.26l-.07 1.981h-1.83v-1.981h1.9zm-3.16 0v1.981h-1.845l-.07-1.981h1.915zm-5.176-1.26h-1.872l2.176-1.409-.304 1.41zm.19 4.501l-2.832 1.719-1.406-1.719h4.239zm1.81-3.241l.07 1.981h-1.773l-.103-1.981h1.806zm3.188-13.862v1.138h-1.566l-.048-1.138h1.614zm-3.34-1.26l2.817-2.51-.64 2.51h-2.177zm5.5 3.657l-1.536 1.966-1.58-1.966h3.116zm-2.01-3.704l.456-1.786.455 1.786h-.911zm4.26 15.169h1.795l-.103 1.981h-1.762l.07-1.981zm1.687-2.672l2.182 1.412h-1.88l-.302-1.412zm4.503 5.913l-1.299 1.947-3.27-1.947h4.569zm-.31-3.241h.857v1.981h-1.022l.165-1.981zm-1.43 1.982h-1.495l.102-1.982h1.559l-.165 1.982zm.107-4.296l-2.96-1.917 1.491-2.609c.532 1.89 1.023 3.404 1.47 4.526zm-2.065-11.548h.828v1.138h-.897l.069-1.138zm-.005 5.535l-1.462 2.557-.712-3.33h-2.81l1.612-2.063 3.372 2.836zm-.6-3.138c.103.426.206.842.306 1.245l-1.48-1.245h1.174zm-.657-2.397l-.069 1.138h-1.483l.046-1.138h1.506zm-1.06-1.26h-2.206l-.648-2.542 2.855 2.542zm-1.707 1.26l-.047 1.138h-1.564v-1.138h1.61zm.592-10.617l-1.94-1.573 1.4-1.183c.167.862.348 1.785.54 2.756zm-2.803-5.68l1.745 1.714-1.878 1.586-1.74-1.41 1.873-1.89zm-1.81.037l.283-1.537.628.617-.912.92zm.956-2.643h1.663l-.82.828-.843-.828zm1.741 1.711l.55-.555.25 1.34-.8-.785zm-.936-6.583l.336 1.315h-.673l.337-1.315zm-3.318 3.612V7.656h6.634v1.037h-6.634zm.977 6.958l1.277 1.036-1.773 1.497c.176-.888.342-1.736.496-2.533zm2.274 1.843l2.91 2.358-2.838 2.529-2.85-2.54 2.778-2.347zm-3.343 3.534l2.468 2.197-3.62 3.227c.404-1.829.792-3.666 1.152-5.424zm-.078 7.828l.047 1.138h-1.48l-.07-1.138h1.503zm-2.183 2.397h1.059l-1.335 1.122.276-1.122zm2.7.267l1.685 2.097h-2.824l-.725 3.362-1.533-2.606 3.397-2.853zm-4.162-1.526v-1.139h.88l.069 1.139h-.95zm.235 5.965l1.49 2.532-2.941 1.905c.442-1.103.927-2.587 1.45-4.437zm.029 6.759l.103 1.981H21.7l-.166-1.981h1.553zm-3.68 0h.862l.166 1.981h-1.027v-1.981h-.001zm-.483 3.786l1.501 1.834-3.306 2.005a854.367 854.367 0 001.805-3.839zm-3.144 6.661l1.513 1.95-3.574 2.359c.46-.959 1.192-2.483 2.061-4.309zm-1.693 5.575l3.98-2.627 2.04 2.627h-6.02zm6.639-1.257l-1.603-2.066 2.42-1.596a13.639 13.639 0 00-.817 3.662zm2.03-5.972l-4.408 2.907-1.767-2.275 4.65-2.82 1.653 2.018c-.042.056-.088.112-.129.17zm.964-1.138l-1.401-1.711 4.435-2.69 1.886 2.139c-1.97.23-3.622.984-4.92 2.262zm4.703-4.414h3.15l-1.604 1.754-1.546-1.754zm7.79 4.447c-1.293-1.292-2.941-2.054-4.903-2.291l1.84-2.013 4.795 2.852-1.292 1.935a8.527 8.527 0 00-.44-.483zm1.35 1.39L39.03 49.6l4.28 2.547-1.772 2.285-3.973-2.637zm1.604 5.69a13.76 13.76 0 00-.816-3.657l2.412 1.6-1.596 2.058zm.623 1.254l2.026-2.611 3.936 2.611H39.79zm2.8-3.61l1.526-1.966c.89 1.867 1.638 3.417 2.099 4.37L42.59 55.13zM2.763 8.964l-1.091.63A5.768 5.768 0 01.899 6.71c0-3.183 2.593-5.773 5.78-5.773 3.187 0 5.78 2.59 5.78 5.773s-2.593 5.773-5.78 5.773a5.74 5.74 0 01-2.447-.542l.534-1.14a4.521 4.521 0 006.432-4.09 4.521 4.521 0 00-4.52-4.515A4.521 4.521 0 002.16 6.71c0 .793.209 1.573.603 2.255zm5.694 5.696l-1.247.183-.252-1.714 1.247-.184.252 1.715zM6.59 13.135l-.2 1.723-1.251-.145.2-1.724 1.25.146zm-2.782-.7l1.172.465-.64 1.61-1.172-.465.64-1.61zM2.45 13.647l-1.012-.752 1.035-1.391 1.011.753-1.034 1.39zM12.51 1.496l.782.988-1.358 1.075-.782-.988 1.358-1.075zm1.704 2.848l-1.592.689-.5-1.156 1.593-.689.5 1.156zm.408 2.035l-1.717.253-.183-1.246 1.717-.253.183 1.246zM12.91 7l1.723.2-.146 1.251-1.723-.2L12.91 7zm-.236 1.608l1.612.64-.464 1.17-1.613-.64.465-1.17zm-.645 1.494l1.393 1.035-.751 1.01-1.393-1.034.751-1.011zm-1.008 1.274l1.077 1.36-.987.782-1.077-1.36.987-.782zm-1.774 3.061l-.688-1.592 1.156-.5.688 1.593-1.156.5zm43.779 32.235a1.47 1.47 0 011.172.436l.766.765-.891.89-.767-.765a.225.225 0 00-.186-.07c-.128.01-.268.103-.374.247l-.782 1.059c-.315.428-.772.674-1.254.674s-.94-.245-1.256-.673l-.78-1.058c-.108-.146-.249-.238-.377-.247a.226.226 0 00-.185.07l-.766.764-.891-.89.766-.766c.314-.313.733-.469 1.17-.434.498.037.97.313 1.296.755l.782 1.058c.075.104.163.162.24.162.077 0 .164-.06.24-.162l.782-1.059c.326-.443.798-.718 1.295-.756zm-40.79-12.21a.22.22 0 00-.186-.07c-.127.01-.268.102-.375.247l-.78 1.059c-.316.428-.774.674-1.255.674-.483 0-.94-.245-1.256-.673l-.781-1.06c-.107-.144-.247-.235-.375-.245a.223.223 0 00-.186.069l-.765.764-.892-.89.767-.765a1.47 1.47 0 011.17-.434c.496.037.969.312 1.296.754l.78 1.06c.153.204.33.204.482-.001l.78-1.06c.327-.442.8-.717 1.296-.755.437-.034.857.122 1.172.435l.766.766-.891.89-.767-.765zm34.45-12.15c.328-.443.8-.719 1.296-.757a1.47 1.47 0 011.172.435l.767.766-.892.89-.766-.765a.237.237 0 00-.186-.07c-.128.01-.268.102-.375.246l-.78 1.06c-.317.428-.774.675-1.256.675-.481 0-.939-.246-1.255-.674l-.78-1.059c-.108-.144-.249-.237-.377-.246a.218.218 0 00-.186.069l-.765.765-.891-.891.764-.764a1.483 1.483 0 011.172-.435c.496.037.97.312 1.297.755l.78 1.058c.153.206.33.206.481 0l.78-1.059zm-7.796-8.314c-1.047-.3-1.578-.765-1.578-1.384 0-.618.53-1.083 1.577-1.384l2.283-.655.349 1.21-2.283.655a3.11 3.11 0 00-.478.174c.107.051.26.112.478.174l2.283.655c1.376.394 3.49.441 4.616.102 1.365-.41 3.512-.417 4.888-.015 1.139.332 3.285.284 4.686-.105l2.34-.65c.217-.061.374-.12.484-.17a3.109 3.109 0 00-.453-.163l-2.41-.687c-1.381-.393-3.5-.446-4.63-.114-1.364.402-3.51.41-4.88.016l.347-1.21c1.136.325 3.05.318 4.176-.014 1.365-.401 3.709-.353 5.334.11l2.409.688c1.045.298 1.574.76 1.571 1.376-.002.62-.544 1.083-1.61 1.38l-2.34.65c-1.644.458-4.007.501-5.378.101-1.135-.332-3.043-.326-4.17.013-.626.189-1.46.281-2.336.281-1.028 0-2.114-.128-2.992-.379l-2.283-.655zM9.954 23.813c-1.135-.332-3.044-.326-4.169.014-.627.19-1.46.282-2.336.282-1.028 0-2.114-.128-2.992-.38L0 23.6V19.78l.456-.13c1.62-.466 3.965-.521 5.336-.129 1.134.325 3.047.32 4.177-.013 1.364-.402 3.707-.353 5.333.11l2.41.688c1.044.298 1.572.76 1.57 1.376-.002.62-.544 1.083-1.61 1.38l-.338-1.214c.218-.06.374-.12.484-.17a3.137 3.137 0 00-.453-.162l-2.409-.687c-1.382-.394-3.503-.447-4.631-.114-1.366.402-3.51.41-4.881.016-1.018-.292-2.827-.276-4.184.014v1.884c1.355.287 3.154.293 4.16-.01 1.366-.411 3.513-.419 4.888-.016 1.14.332 3.286.284 4.687-.105l.338 1.214c-1.644.457-4.007.501-5.379.1zm47.954 11.24c.38.11.866.185 1.404.22l.59.038v3.773l-.587.04a6.705 6.705 0 00-1.414.234c-.763.229-1.675.278-2.307.28l-.002-1.26c.774-.001 1.464-.082 1.945-.226.32-.096.696-.173 1.104-.226v-1.451a7.106 7.106 0 01-1.08-.21c-1.138-.327-3.261-.269-4.64.127l-2.284.654c-.217.062-.37.123-.478.175.108.05.26.11.479.173l-.349 1.21c-1.046-.3-1.577-.765-1.577-1.383 0-.619.53-1.084 1.577-1.385l2.284-.654c1.62-.466 3.964-.522 5.335-.128zM43.044 10.136h1.313v1.313h-1.313v-1.313z" />
</svg>