<svg viewBox="0 0 51 51" version="1.1" xmlns="http://www.w3.org/2000/svg" xmlns:xlink="http://www.w3.org/1999/xlink" fill="currentColor" width="51px" height="51px">
    <defs>
        <path d="M44.775,44.341875 L44.775,39.4325 C44.775,37.595 43.278125,36.098125 41.440625,36.098125 C39.603125,36.098125 38.10625,37.595 38.10625,39.4325 L38.10625,44.341875 L36.53125,44.341875 L36.53125,39.4325 C36.53125,37.595 35.0375,36.098125 33.196875,36.098125 C31.359375,36.098125 29.865625,37.595 29.865625,39.4325 L29.865625,44.341875 L28.290625,44.341875 L28.290625,39.4325 C28.290625,37.595 26.79375,36.098125 24.953125,36.098125 C23.115625,36.098125 21.61875,37.595 21.61875,39.4325 L21.61875,44.341875 L20.04375,44.341875 L20.04375,39.4325 C20.04375,37.595 18.546875,36.098125 16.7125,36.098125 C14.871875,36.098125 13.378125,37.595 13.378125,39.4325 L13.378125,44.341875 L11.8,44.341875 L11.8,39.4325 C11.8,37.595 10.30625,36.098125 8.465625,36.098125 C6.628125,36.098125 5.13125,37.595 5.13125,39.4325 L5.13125,44.341875 L3.55625,44.341875 L3.55625,34.52 L46.35,34.52 L46.35,44.341875 L44.775,44.341875 Z M39.828125,44.341875 L39.828125,39.4325 C39.828125,38.545 40.55,37.82 41.440625,37.82 C42.33125,37.82 43.053125,38.545 43.053125,39.4325 L43.053125,44.341875 L39.828125,44.341875 Z M31.584375,44.341875 L31.584375,39.4325 C31.584375,38.545 32.309375,37.82 33.196875,37.82 C34.0875,37.82 34.8125,38.545 34.8125,39.4325 L34.8125,44.341875 L31.584375,44.341875 Z M23.340625,44.341875 L23.340625,39.4325 C23.340625,38.545 24.065625,37.82 24.953125,37.82 C25.84375,37.82 26.565625,38.545 26.565625,39.4325 L26.565625,44.341875 L23.340625,44.341875 Z M15.096875,44.341875 L15.096875,39.4325 C15.096875,38.545 15.821875,37.82 16.7125,37.82 C17.6,37.82 18.321875,38.545 18.321875,39.4325 L18.321875,44.341875 L15.096875,44.341875 Z M6.853125,44.341875 L6.853125,39.4325 C6.853125,38.545 7.578125,37.82 8.465625,37.82 C9.35625,37.82 10.078125,38.545 10.078125,39.4325 L10.078125,44.341875 L6.853125,44.341875 Z M28.459375,4.823125 L31.975,14.666875 L28.290625,14.666875 L28.290625,9.7575 C28.290625,7.916875 26.79375,6.42 24.953125,6.42 C23.115625,6.42 21.61875,7.916875 21.61875,9.7575 L21.61875,14.666875 L20.04375,14.666875 L20.04375,9.7575 C20.04375,7.916875 18.546875,6.42 16.7125,6.42 C14.871875,6.42 13.378125,7.916875 13.378125,9.7575 L13.378125,14.666875 L11.8,14.666875 L11.8,9.7575 C11.8,7.916875 10.30625,6.42 8.465625,6.42 C6.628125,6.42 5.13125,7.916875 5.13125,9.7575 L5.13125,14.666875 L3.553125,14.666875 L3.521875,4.845 L28.459375,4.823125 Z M23.340625,14.66375 L23.340625,9.7575 C23.340625,8.86375 24.065625,8.141875 24.953125,8.141875 C25.84375,8.141875 26.565625,8.86375 26.565625,9.7575 L26.565625,14.66375 L23.340625,14.66375 Z M15.096875,14.66375 L15.096875,9.7575 C15.096875,8.86375 15.821875,8.141875 16.7125,8.141875 C17.6,8.141875 18.321875,8.86375 18.321875,9.7575 L18.321875,14.66375 L15.096875,14.66375 Z M6.853125,14.66375 L6.853125,9.7575 C6.853125,8.86375 7.578125,8.141875 8.465625,8.141875 C9.35625,8.141875 10.078125,8.86375 10.078125,9.7575 L10.078125,14.66375 L6.853125,14.66375 Z M48,17.17625 C48,17.60125 47.6375,17.96375 47.209375,17.96375 L2.696875,17.96375 C2.2625,17.96375 1.909375,17.6075 1.909375,17.17625 C1.909375,16.741875 2.2625,16.38875 2.696875,16.38875 L33.196875,16.38875 L47.209375,16.38875 C47.6375,16.38875 48,16.748125 48,17.17625 L48,17.17625 Z M10.078125,29.504375 L6.853125,29.504375 L6.853125,24.595 C6.853125,23.704375 7.578125,22.9825 8.465625,22.9825 C9.35625,22.9825 10.078125,23.704375 10.078125,24.595 L10.078125,29.504375 Z M18.321875,29.504375 L15.096875,29.504375 L15.096875,24.595 C15.096875,23.704375 15.821875,22.9825 16.7125,22.9825 C17.6,22.9825 18.321875,23.704375 18.321875,24.595 L18.321875,29.504375 Z M26.565625,29.504375 L23.340625,29.504375 L23.340625,24.595 C23.340625,23.704375 24.065625,22.9825 24.953125,22.9825 C25.84375,22.9825 26.565625,23.704375 26.565625,24.595 L26.565625,29.504375 Z M34.8125,29.504375 L31.584375,29.504375 L31.584375,24.595 C31.584375,23.704375 32.309375,22.9825 33.196875,22.9825 C34.0875,22.9825 34.8125,23.704375 34.8125,24.595 L34.8125,29.504375 Z M43.053125,29.504375 L39.828125,29.504375 L39.828125,24.595 C39.828125,23.704375 40.55,22.9825 41.440625,22.9825 C42.33125,22.9825 43.053125,23.704375 43.053125,24.595 L43.053125,29.504375 Z M3.55625,19.6825 L46.35,19.6825 L46.35,29.504375 L44.775,29.504375 L44.775,24.595 C44.775,22.7575 43.278125,21.260625 41.440625,21.260625 C39.603125,21.260625 38.10625,22.7575 38.10625,24.595 L38.10625,29.504375 L36.53125,29.504375 L36.53125,24.595 C36.53125,22.7575 35.0375,21.260625 33.196875,21.260625 C31.359375,21.260625 29.865625,22.7575 29.865625,24.595 L29.865625,29.504375 L28.290625,29.504375 L28.290625,24.595 C28.290625,22.7575 26.79375,21.260625 24.953125,21.260625 C23.115625,21.260625 21.61875,22.7575 21.61875,24.595 L21.61875,29.504375 L20.04375,29.504375 L20.04375,24.595 C20.04375,22.7575 18.546875,21.260625 16.7125,21.260625 C14.871875,21.260625 13.378125,22.7575 13.378125,24.595 L13.378125,29.504375 L11.8,29.504375 L11.8,24.595 C11.8,22.7575 10.30625,21.260625 8.465625,21.260625 C6.628125,21.260625 5.13125,22.7575 5.13125,24.595 L5.13125,29.504375 L3.55625,29.504375 L3.55625,19.6825 Z M1.909375,32.01375 C1.909375,31.579375 2.2625,31.22625 2.696875,31.22625 L5.99375,31.22625 L10.940625,31.22625 L14.2375,31.22625 L19.184375,31.22625 L22.48125,31.22625 L27.428125,31.22625 L30.725,31.22625 L35.671875,31.22625 L38.96875,31.22625 L43.915625,31.22625 L47.209375,31.22625 C47.6375,31.22625 48,31.585625 48,32.01375 C48,32.43875 47.6375,32.80125 47.209375,32.80125 L2.696875,32.80125 C2.2625,32.80125 1.909375,32.445 1.909375,32.01375 L1.909375,32.01375 Z M49.721875,32.01375 C49.721875,30.935625 49.028125,30.0325 48.071875,29.679375 L48.071875,19.510625 C49.028125,19.154375 49.721875,18.25125 49.721875,17.17625 C49.721875,15.791875 48.596875,14.666875 47.209375,14.666875 L33.803125,14.666875 L30.08125,4.235625 C29.840625,3.57 29.203125,3.12625 28.49375,3.12625 L3.521875,3.12625 C2.590625,3.12625 1.834375,3.8825 1.834375,4.810625 L1.834375,14.841875 C0.878125,15.195 0.1875,16.098125 0.1875,17.17625 C0.1875,18.25125 0.878125,19.154375 1.834375,19.510625 L1.834375,29.679375 C0.878125,30.0325 0.1875,30.935625 0.1875,32.01375 C0.1875,33.08875 0.878125,33.991875 1.834375,34.348125 L1.834375,44.341875 L1.046875,44.341875 C0.571875,44.341875 0.1875,44.72625 0.1875,45.20125 C0.1875,45.679375 0.571875,46.06375 1.046875,46.06375 L2.696875,46.06375 L5.99375,46.06375 L10.940625,46.06375 L14.2375,46.06375 L19.184375,46.06375 L22.48125,46.06375 L27.428125,46.06375 L30.725,46.06375 L35.671875,46.06375 L38.96875,46.06375 L43.915625,46.06375 L47.209375,46.06375 L48.8625,46.06375 C49.3375,46.06375 49.721875,45.679375 49.721875,45.20125 C49.721875,44.72625 49.3375,44.341875 48.8625,44.341875 L48.071875,44.341875 L48.071875,34.348125 C49.028125,33.991875 49.721875,33.08875 49.721875,32.01375 L49.721875,32.01375 Z" id="rome" />
    </defs>
    <g stroke="none" stroke-width="1" fill="none" fill-rule="evenodd">
        <g id="intl-Hotel-City-landing---Rome---Desktop" transform="translate(-774.000000, -138.000000)">
            <g transform="translate(649.000000, 94.000000)">
                <g transform="translate(34.500000, 44.500000)">
                    <g>
                        <g id="Icon-/-Tours-Homepage-/-rome" transform="translate(91.000000, 0.000000)">
                            <mask id="rome-mask" fill="white">
                                <use xlink:href="#rome" />
                            </mask>
                            <use id="Mask" fill="#000000" xlink:href="#rome" />
                            <g id="Color-Palettes-/-White-Color" mask="url(#rome-mask)" fill="currentColor">
                                <rect id="White-Color" x="0" y="0" width="50" height="50" />
                            </g>
                        </g>
                    </g>
                </g>
            </g>
        </g>
    </g>
</svg>
