<svg viewBox="0 0 114 132" xmlns="http://www.w3.org/2000/svg">
    <path
        d="M111.187 129.185H2.813v-3.019h108.374v3.019zM6.769 120.332H107.23v3.019H6.77v-3.02zm4.79-5.834h90.883v3.018H11.558v-3.018zm4.82-64.384h3.994l1.761 61.568h-7.516l1.76-61.568zm.177-12.664l22.959-7.13H74.9l22.96 7.13v2.556h-6.43l-3.83-1.19-.006-.002-6.02-1.87v-1c0-.777-.63-1.408-1.406-1.408H70.065c-.414 0-.783.183-1.04.47h-23.63a1.398 1.398 0 00-1.042-.47H34.25c-.777 0-1.407.63-1.407 1.408v1l-9.858 3.062h-6.43V37.45zm0-3.316c0-5.293 3.555-12.79 7.97-14.162l13.37-4.152v.446a1.407 1.407 0 102.813 0c0-7.417 6.029-13.45 13.44-13.45h6.118c7.412 0 13.441 6.033 13.441 13.45a1.407 1.407 0 102.814 0v-.446l13.367 4.152c4.416 1.371 7.972 8.869 7.972 14.162v.368l-22.33-6.935a1.406 1.406 0 00-.416-.063H39.302a1.4 1.4 0 00-.417.063l-22.33 6.935v-.368zm77.426 15.98h4.057l1.76 61.568h-7.516l1.699-61.568zm-20.898-5.47h4.065l1.73 67.038h-7.525l1.73-67.038zm-35.815 0h4.065l1.73 67.038H35.54l1.73-67.038zm-21.703 2.654h5.62v-.83h-5.62v.83zm11.66-5.661l6.526 2.027c.116.362.372.658.707.827l-.101 3.914-9.58-2.975a1.39 1.39 0 00.056-.37v-2.68l2.391-.743zm8.431-3.455h7.289v-.83h-7.289v.83zm35.815 0h7.289v-.83h-7.289v.83zm9.717 2.371a1.4 1.4 0 00.354-.67l.902.28-1.256.39zm-8.882 1.276h5.62v-.831h-5.62v.83zm-28.14 3.492h26.085l-.12 4.686H44.286l-.12-4.686zm-7.675-3.492h5.62v-.831h-5.62v.83zm56.895 5.47h5.619v-.832h-5.62v.831zm-.835-3.647h7.288v-.831h-7.288v.83zm-2.813-1.224v2.631c0 .113.017.222.042.327l-9.72 3.019-.101-3.914c.335-.169.59-.465.707-.828l6.524-2.026 2.548.791zm-21.08-4.607v1.769c0 .573.343 1.064.834 1.284v1.632H44.925v-1.632c.49-.22.834-.71.834-1.284v-1.77h22.9zm-35.784 2.061c.054.258.18.488.355.672l-1.259-.391.904-.28zm-18.143 3.77h7.288v-.831h-7.288v.83zm10.217 68.03L23.184 49.98c.48-.224.815-.708.815-1.273v-.57l10.283 3.194-1.557 60.352H24.95zm20.929 0l-1.519-58.86h25.7l-1.52 58.86h-22.66zm35.815 0L80.136 51.33l10.438-3.241v.618c0 .477.238.897.6 1.151l-1.705 61.825h-7.776zm30.9 11.669h-2.55v-4.427c0-.778-.629-1.408-1.406-1.408h-3.382v-4.426c0-.778-.63-1.408-1.407-1.408h-1.234l-1.762-61.646c.56-.185.967-.707.967-1.33v-2.363c.492-.22.835-.71.835-1.284v-3.646c0-.777-.63-1.407-1.407-1.407h-.573v-5.872c0-5.624-3.543-14.861-9.951-16.85l-14.583-4.53A16.317 16.317 0 0067.062 1.49 16.149 16.149 0 0060.267 0H54.15c-7.758 0-14.264 5.467-15.873 12.754l-14.583 4.53c-6.407 1.989-9.95 11.226-9.95 16.85v5.872h-.418c-.777 0-1.407.63-1.407 1.407v3.646c0 .574.344 1.065.835 1.284v2.363c0 .565.335 1.049.815 1.273l-1.764 61.703H10.15c-.776 0-1.406.63-1.406 1.408v4.426H5.362c-.776 0-1.406.63-1.406 1.408v4.427h-2.55c-.776 0-1.406.63-1.406 1.407v5.834C0 131.37.63 132 1.407 132h111.186c.777 0 1.407-.63 1.407-1.408v-5.834c0-.777-.63-1.407-1.407-1.407z"
        fill="currentColor"
        fill-rule="evenodd"
    />
</svg>
