<svg viewBox="0 0 197 80" xmlns="http://www.w3.org/2000/svg">
    <path
        d="M193.544 76.539h-1.568l-.006-20.61c0-.022.006-.042.006-.064s-.006-.043-.006-.065l-.002-6.679c0-.575-.06-1.121-.178-1.622-1.308-5.578-4.211-7.294-6.772-8.808a1.727 1.727 0 00-1.757 0c-.902.533-1.853 1.099-2.762 1.85v-4.255h13.045v40.253zm-24.961-7.293c0-.422.024-.826.071-1.169.45-3.289 1.094-4.391 2.009-5.291.984 1.158 1.664 2.34 2.104 5.774.043.337.065.715.065 1.127l.004 6.852h-4.258l.005-7.293zm-.002-18.162l.002-6.265c0-.42.024-.818.07-1.15.427-3.05.991-4.027 1.831-4.751 1.08 1.408 1.817 2.685 2.282 6.387.044.346.066.73.066 1.143v5.327l-4.25-.69zm0 3.506l4.253.691v4.736l-.127-.142a36.223 36.223 0 01-.591-.67 1.725 1.725 0 00-2.486-.144c-.194.18-.384.345-.57.508-.165.144-.324.288-.48.432l.001-5.41zm-4.574-27.054l13.036 2.274v46.729h-.75l-.003-22.754v-.07l-.002-7.268c0-.556-.031-1.086-.093-1.574-.643-5.117-1.928-6.748-3.416-8.635a39.11 39.11 0 01-.597-.768 1.729 1.729 0 00-2.433-.327c-.191.147-.379.282-.561.413-1.882 1.356-3.267 2.697-3.958 7.634a11.957 11.957 0 00-.103 1.629l-.002 7.755v.078l-.004 23.887h-1.114V27.536zm-20.026 41.447c0-.384.039-.75.11-1.056 1.013-4.316 2.73-5.86 5.368-7.488 2.64 1.628 4.356 3.172 5.368 7.487.072.307.11.673.11 1.058l.01 7.555h-10.974l.008-7.556zm-.002-18.91l.002-6.231c0-.385.039-.75.11-1.057 1.013-4.316 2.73-5.86 5.368-7.487 2.64 1.628 4.356 3.171 5.368 7.487.072.307.11.672.11 1.056l.003 6.232h-10.96zm0 3.462h10.962l.002 6.882c-1.435-1.61-3.072-2.581-4.605-3.487a1.724 1.724 0 00-1.757 0c-1.533.906-3.17 1.876-4.605 3.487l.002-6.882zm-4.305-26.326h20.877v49.33h-2.147l-.007-24.658c0-.026.007-.05.007-.077 0-.027-.006-.051-.007-.077l-.003-7.888c0-.656-.069-1.276-.202-1.845-1.515-6.459-4.883-8.45-7.854-10.206a1.724 1.724 0 00-1.757 0c-2.971 1.757-6.34 3.747-7.854 10.206a8.153 8.153 0 00-.202 1.846l-.002 7.887c-.001.026-.008.05-.008.077 0 .026.007.051.008.077l-.008 24.658h-.841v-49.33zm-16.368 40.422c0-.48.04-.935.114-1.316.928-4.747 2.447-6.293 4.366-7.522 1.92 1.859 3.425 3.81 4.248 8.594.063.367.095.78.096 1.228l.006 7.924h-8.838l.008-8.908zm-.002-21.058l.002-7.741c0-.475.038-.914.111-1.27.887-4.344 2.252-5.495 4.09-6.28 1.989 2.336 3.665 4.74 4.525 9.93.065.386.097.811.098 1.262v6.111l-8.826-2.012zm-.001 3.55l8.829 2.013.001 6.345c-.864-1.129-1.85-2.101-2.943-3.116a1.726 1.726 0 00-2.049-.225c-1.425.837-2.723 1.69-3.84 2.947l.002-7.964zm-5.024-25.684l17.939 2.542v49.558h-.625l-.006-25.698a1.445 1.445 0 000-.13l-.001-8.239c0-.64-.05-1.255-.144-1.828-1.055-6.36-3.11-9.1-6.126-12.555a1.727 1.727 0 00-1.9-.484c-3.252 1.205-6.052 2.734-7.385 9.264a9.888 9.888 0 00-.181 1.963l-.002 9.023a1.587 1.587 0 000 .158l-.008 28.526h-1.56v-52.1zM87.372 67.631c0-.39.06-.759.172-1.068 1.918-5.247 5.437-7.057 10.956-9.18 5.519 2.123 9.039 3.933 10.956 9.18.113.31.173.678.173 1.07l.016 8.906h-22.29l.017-8.908zm-.004-21.41l.004-7.391c0-.39.06-.76.172-1.068 1.918-5.247 5.437-7.057 10.956-9.18 5.519 2.123 9.039 3.933 10.956 9.18.113.309.173.678.173 1.068l.003 7.392H87.368zm-.002 3.462h22.268l.005 10.42c-2.89-3.289-6.753-4.758-10.526-6.19-.395-.15-.83-.15-1.225 0-3.773 1.432-7.636 2.901-10.527 6.19l.005-10.42zm-5.189-25.506h16.41l.012.001h16.224v52.36h-1.72l-.013-28.442c.003-.048.014-.094.014-.144 0-.05-.01-.097-.015-.145l-.004-8.978a6.56 6.56 0 00-.383-2.257c-2.674-7.317-8.223-9.423-13.59-11.46a1.72 1.72 0 00-1.224 0c-5.366 2.037-10.916 4.143-13.59 11.46a6.563 6.563 0 00-.382 2.256l-.005 8.98c-.004.049-.014.095-.014.144 0 .05.01.095.014.143l-.014 28.444h-1.72V24.177zM64.871 68.613c0-.438.033-.862.095-1.226.823-4.785 2.329-6.735 4.249-8.594 1.919 1.229 3.437 2.775 4.365 7.522.075.381.114.837.114 1.318l.009 8.906h-8.839l.007-7.926zm-.001-20.028v-6.112c0-.448.034-.872.098-1.262.86-5.19 2.536-7.593 4.526-9.929 1.837.785 3.202 1.936 4.09 6.28.072.355.11.795.11 1.27l.002 7.741-8.826 2.012zm-.001 3.55l8.828-2.012.002 7.964c-1.117-1.257-2.414-2.11-3.84-2.947a1.726 1.726 0 00-2.049.225c-1.092 1.015-2.078 1.987-2.943 3.115l.002-6.344zm-4.086-25.154l4.975-.705h.004l12.959-1.837v52.1h-1.56l-.008-28.527a1.722 1.722 0 000-.157l-.002-9.023c0-.715-.062-1.375-.181-1.964-1.334-6.53-4.134-8.058-7.385-9.263a1.727 1.727 0 00-1.9.484c-3.017 3.455-5.072 6.196-6.126 12.555a11.231 11.231 0 00-.144 1.829l-.002 8.239a1.604 1.604 0 000 .129l-.006 25.698h-.624V26.98zm-18.72 42.002c0-.384.038-.75.11-1.056 1.012-4.316 2.729-5.86 5.368-7.488 2.64 1.628 4.355 3.172 5.368 7.488.071.307.11.672.11 1.057l.009 7.555H42.054l.009-7.556zm-.002-18.91l.002-6.232c0-.384.038-.75.11-1.056 1.012-4.316 2.728-5.86 5.368-7.487 2.64 1.627 4.355 3.171 5.368 7.488.072.306.11.67.11 1.055l.002 6.232h-10.96zm-.002 3.462h10.963l.002 6.882c-1.435-1.61-3.072-2.581-4.605-3.487a1.726 1.726 0 00-1.757 0c-1.532.906-3.17 1.876-4.604 3.487l.002-6.882zm-5.61-26.326h20.878v49.33h-.842l-.008-24.656c.002-.027.008-.052.008-.079 0-.027-.006-.052-.008-.08l-.002-7.885a8.11 8.11 0 00-.202-1.845c-1.515-6.459-4.882-8.45-7.854-10.206a1.725 1.725 0 00-1.757 0c-2.97 1.757-6.339 3.747-7.854 10.206a8.137 8.137 0 00-.202 1.846l-.002 7.885c-.001.027-.008.052-.008.08 0 .026.007.051.008.078l-.007 24.656h-2.148v-49.33zM3.456 36.286h13.046v4.254c-.91-.75-1.86-1.316-2.763-1.85a1.727 1.727 0 00-1.757 0c-2.56 1.516-5.462 3.23-6.772 8.81a7.168 7.168 0 00-.178 1.623l-.002 6.675c0 .023-.006.044-.006.068 0 .023.006.044.006.067L5.024 76.54H3.456V36.286zm5.032 34.122c0-.305.03-.593.087-.833.846-3.605 2.358-4.9 4.282-6.09 1.67 1.046 2.82 2.04 3.645 4.037v9.017h-8.02l.006-6.131zm8.014-16.274H8.487l.001-5.01c0-.305.03-.594.087-.834.846-3.605 2.358-4.9 4.282-6.089 1.67 1.046 2.82 2.04 3.645 4.036v7.897zm-8.016 3.462h8.016v4.228c-.91-.75-1.86-1.316-2.763-1.848a1.725 1.725 0 00-1.757 0c-1.156.683-2.38 1.411-3.498 2.514l.002-4.894zm15.682 12.09c0-.404.023-.793.066-1.126.44-3.434 1.119-4.616 2.103-5.774.915.9 1.56 2.003 2.009 5.292.047.34.072.745.072 1.17l.004 7.29h-4.258l.004-6.853zm0-17.911v-5.328c0-.404.023-.8.066-1.143.465-3.7 1.202-4.978 2.282-6.386.84.724 1.404 1.7 1.83 4.75.047.331.072.73.072 1.151l.001 6.265-4.252.69zm-.001 3.506l4.252-.69.001 5.41a23.029 23.029 0 00-.48-.432c-.185-.162-.376-.328-.57-.508a1.726 1.726 0 00-2.485.145c-.203.236-.4.456-.592.67l-.127.142V55.28zm-4.21-25.471l13.036-2.274V76.54H31.88l-.004-23.888c.002-.025 0-.05 0-.075l-.001-7.758c0-.588-.036-1.136-.104-1.63-.69-4.935-2.076-6.276-3.958-7.632-.181-.13-.369-.266-.56-.413a1.724 1.724 0 00-2.433.327c-.205.27-.404.523-.598.768-1.488 1.888-2.773 3.518-3.416 8.635-.062.49-.093 1.02-.093 1.574l-.001 7.27v.065l-.004 22.757h-.75V29.81zm56.194-18.273a56.178 56.178 0 014.273-3.018 34.393 34.393 0 013.387-1.898c-.753.761-1.5 1.572-2.228 2.422-1.843 2.15-4.316 7.317-5.938 12.336l-7.341 1.04c2.4-4.992 5.878-9.35 7.847-10.882zm24.12 1.429c-.023-1.2-.043-2.171-.043-2.796V3.917c1.002.654 2.06 2 3.076 3.945a43.21 43.21 0 011.411 2.99c.687 1.604 1.878 5.666 2.635 9.864h-6.99a349.96 349.96 0 00-.088-7.75zm-19.822 7.75c-.047 0-.09.01-.136.014-.035.002-.07-.002-.106.003l-.727.103c1.554-4.36 3.497-8.105 4.726-9.539a41.69 41.69 0 012.818-2.986c1.367-1.308 2.774-2.349 4.212-3.13-.203.344-.404.698-.602 1.075a46.896 46.896 0 00-1.525 3.231c-.878 2.05-1.942 6.883-2.702 11.229h-5.958zm9.467 0c.794-4.425 1.74-8.395 2.37-9.863a43.427 43.427 0 011.41-2.991c1.017-1.946 2.074-3.291 3.076-3.945v6.253c0 .64.02 1.635.044 2.864.041 2.102.095 4.852.088 7.682h-6.988zm26.635 0h-5.692c-.825-4.85-2.208-9.456-2.968-11.229a46.74 46.74 0 00-1.525-3.231 24.078 24.078 0 00-.601-1.074c1.438.78 2.844 1.821 4.211 3.129.95.907 1.898 1.912 2.819 2.987 1.237 1.443 3.473 5.443 5.003 9.577l-1.004-.142c-.036-.005-.072 0-.107-.003-.046-.004-.089-.014-.136-.014zm4.298-9.18c2.165 1.685 5.876 6.59 8.122 10.923l-7.327-1.039c-1.574-4.922-4.395-10.24-6.227-12.377a46.383 46.383 0 00-2.228-2.422 34.29 34.29 0 013.388 1.898 56.373 56.373 0 014.272 3.018zm59.65 42.598v-7.897c.824-1.997 1.974-2.99 3.644-4.036 1.924 1.19 3.437 2.485 4.282 6.089.057.24.087.528.087.833l.001 5.011H180.5zm0 13.388c.824-1.997 1.974-2.991 3.644-4.036 1.924 1.189 3.437 2.484 4.282 6.088.057.24.087.528.087.834l.007 6.13h-8.02v-9.016zm8.017-5.032c-1.118-1.103-2.342-1.831-3.498-2.514a1.725 1.725 0 00-1.757 0c-.902.532-1.853 1.098-2.762 1.848v-4.228h8.015l.002 4.894zm6.756-29.666h-14.773v-4.47a1.73 1.73 0 00-1.432-1.705l-16.491-2.876c-.042-.007-.084-.004-.127-.008-.056-.005-.111-.017-.17-.017H138.07l-5-.709c-2.27-5.35-7.209-11.986-10.101-14.236a59.743 59.743 0 00-4.536-3.204C112.687 1.936 106.2 0 99.675 0c-.03 0-.056.007-.084.009C99.488.006 99.386 0 99.283 0c-.043 0-.083.01-.125.013C99.069.008 98.981 0 98.892 0c-.068 0-.131.012-.196.02C98.631.012 98.567 0 98.5 0s-.13.012-.196.02C98.24.012 98.176 0 98.11 0c-.09 0-.178.008-.267.013C97.8.01 97.76 0 97.717 0c-.103 0-.205.006-.308.009C97.381.007 97.354 0 97.326 0 90.8 0 84.313 1.936 78.568 5.599a59.5 59.5 0 00-4.536 3.204c-2.885 2.244-7.302 8.183-9.767 14.19l-5.335.755H34.721c-.059 0-.115.012-.172.017-.042.005-.083 0-.124.008L17.933 26.65a1.73 1.73 0 00-1.431 1.705v4.47H1.728A1.73 1.73 0 000 34.555v43.714A1.73 1.73 0 001.728 80h193.544A1.73 1.73 0 00197 78.27V34.554a1.73 1.73 0 00-1.728-1.73z"
        fill="currentColor"
        fill-rule="evenodd"
    />
</svg>
