<svg viewBox="0 0 196 137" xmlns="http://www.w3.org/2000/svg">
    <path
        d="M109.74 12.082V6.45c0-.952.77-1.724 1.719-1.724.95 0 1.72.772 1.72 1.724v5.632c0 .953-.77 1.725-1.72 1.725s-1.72-.772-1.72-1.725zm-5.396 0V6.45c0-.952.77-1.724 1.719-1.724.95 0 1.72.772 1.72 1.724v5.632c0 .953-.77 1.725-1.72 1.725s-1.72-.772-1.72-1.725zm-5.396 0V6.45c0-.952.77-1.724 1.72-1.724.949 0 1.719.772 1.719 1.724v5.632c0 .953-.77 1.725-1.72 1.725s-1.72-.772-1.72-1.725zm-5.396 0V6.45c0-.952.77-1.724 1.72-1.724.949 0 1.718.772 1.718 1.724v5.632c0 .953-.77 1.725-1.719 1.725-.95 0-1.72-.772-1.72-1.725zm-5.396 0V6.45c0-.952.77-1.724 1.72-1.724.949 0 1.718.772 1.718 1.724v5.632c0 .953-.77 1.725-1.719 1.725-.95 0-1.72-.772-1.72-1.725zm-5.396 0V6.45c0-.952.77-1.724 1.72-1.724.949 0 1.718.772 1.718 1.724v5.632c0 .953-.77 1.725-1.719 1.725-.95 0-1.72-.772-1.72-1.725zm87.585 121.47l-39.716-60.593c.228.27.45.546.684.81l.062.067 58.792 59.715h-19.822zm-43.93-39.427c.009-.07.021-.137.021-.208 0-.911-.039-1.862-.118-2.904l-.392-9.531 18.577 52.07h-14.63l-3.458-39.427zM89.617 61.04c2.758-1.479 5.633-2.373 8.404-2.875 2.728.5 5.558 1.384 8.282 2.833A24.97 24.97 0 0098 59.582c-2.932 0-5.743.512-8.383 1.46zm-23.49 72.51h-14.63l18.027-50.528.584-1.635-.395 9.65a37.95 37.95 0 00-.116 2.878l.003.032-3.472 39.603zm-1.502-59.715l.062-.067c.234-.265.457-.54.685-.811L25.655 133.55H5.833l58.792-59.715zm8.672-30.36l-.01.096a50.242 50.242 0 01-.149 1.787l-.034.321c-.024.225-.052.448-.078.672-.028.24-.057.48-.089.72l-.03.225a49.61 49.61 0 01-.175 1.156l-.073.447c-.085.49-.175.978-.274 1.464-.024.119-.052.236-.077.354a50.344 50.344 0 01-.383 1.67c-.087.353-.179.703-.274 1.053-.043.157-.084.314-.128.47-.13.459-.264.915-.407 1.369-.01.035-.02.071-.032.107-.03.093-.063.184-.093.277a189.604 189.604 0 001.117-10.955l1.777-32.438 2.749-1.344-3.337 32.55zm55.198 12.24c-.573-4.14-.988-8.352-1.17-11.196L125.655 14l2.841 1.39v40.326zm-19.74 2.107a38.603 38.603 0 011.544 1.551 28.844 28.844 0 00-1.794-1.107c-.348-.196-.698-.38-1.05-.56.452.034.884.073 1.3.116zm-17.009-3.698a34.551 34.551 0 016.224-3.4 35.258 35.258 0 016.22 3.4c-1.93.015-4.02.16-6.19.521a39.493 39.493 0 00-6.254-.521zm-6.22 5.367a38.267 38.267 0 011.643-1.669c.444-.047.907-.09 1.394-.125-.357.182-.714.37-1.069.57-.677.38-1.328.794-1.967 1.224zm-18.021-3.778V15.39L70.346 14l-1.67 30.505c-.182 2.85-.597 7.067-1.171 11.209zm51.377-.516c.02.476.048.95.082 1.423.01.153.025.304.037.456.025.321.05.643.08.963.019.186.042.371.062.556.03.286.06.571.095.856.025.201.055.402.081.604.037.267.072.535.112.802.032.21.067.417.101.626.042.257.084.515.13.772.037.215.08.428.12.642.03.16.059.32.09.479-.17-.356-.341-.707-.513-1.052l-.161-.321a79.031 79.031 0 00-.798-1.546l-.073-.133a73.327 73.327 0 00-.776-1.415l-.135-.24a70.882 70.882 0 00-.802-1.375l-.168-.279c-.27-.448-.541-.887-.813-1.313l-.102-.16a72.41 72.41 0 00-.78-1.19c-.04-.058-.078-.117-.117-.175a63.333 63.333 0 00-1.788-2.51l-.125-.164a56.42 56.42 0 00-.774-1l-.09-.115c-.27-.338-.537-.665-.804-.985l-.162-.194a53.54 53.54 0 00-.781-.907l-.138-.155a50.8 50.8 0 00-.762-.841l-.05-.055a56.8 56.8 0 00-.777-.814l-.147-.152a48.797 48.797 0 00-.736-.732l-.14-.136a44.82 44.82 0 00-.742-.702l-.014-.014a42.465 42.465 0 00-1.514-1.332l-.136-.113a38.927 38.927 0 00-.656-.535l-.05-.04c-.207-.164-.409-.32-.607-.471l-.104-.08a42.147 42.147 0 00-.704-.518c-.19-.136-.375-.267-.554-.39l-.067-.045a37.11 37.11 0 00-.496-.333l-.074-.049a29.22 29.22 0 00-.479-.305l-.097-.06a25.073 25.073 0 00-.918-.544c-.125-.07-.24-.133-.351-.193l-.069-.037a25.8 25.8 0 00-.295-.155l-.048-.023a13.699 13.699 0 00-.458-.224l-.033-.015-.137-.061a.76.76 0 01-.023-.01l-.074-.032h-.001l-.003-.002c-.016-.006-.033-.009-.05-.015a1.74 1.74 0 00-.27-.082h-.005c-.057-.012-.113-.013-.17-.018-.053-.005-.105-.015-.157-.015h-.006c-.063 0-.125.011-.188.018-.047.005-.094.005-.14.014l-.006.001c-.062.013-.12.036-.181.055-.047.015-.094.023-.14.042l-.08.035-.019.008a7.258 7.258 0 00-.14.063l-.029.013a9.636 9.636 0 00-.47.23l-.032.016c-.095.048-.199.103-.31.162l-.05.027a23.5 23.5 0 00-.368.203l-.014.008c-.133.076-.276.158-.424.246l-.026.015a28.04 28.04 0 00-.464.282l-.06.037c-.163.103-.333.21-.51.327l-.03.02c-.184.12-.374.248-.572.384l-.004.002a35.377 35.377 0 00-1.341.972c-.441.335-.903.703-1.384 1.105l-.073.06c-.236.198-.476.404-.72.619l-.065.057c-.501.443-1.02.92-1.55 1.436l-.072.07c-.26.252-.522.514-.788.786l-.086.088c-.544.558-1.1 1.156-1.665 1.794l-.073.082c-.274.311-.55.633-.828.964l-.107.128c-.282.339-.565.685-.85 1.043l-.03.038c-.284.36-.57.73-.857 1.11l-.065.086c-.282.375-.564.762-.847 1.157l-.123.174c-.282.398-.565.805-.848 1.224l-.076.114c-.281.419-.563.848-.844 1.29l-.052.08c-.281.443-.562.899-.843 1.363l-.136.228c-.276.461-.55.932-.824 1.415l-.11.196c-.276.49-.552.99-.825 1.503l-.03.057a78.477 78.477 0 00-.819 1.587l-.14.28c-.188.376-.374.758-.56 1.146.04-.191.073-.384.11-.576.04-.21.082-.421.12-.633.045-.256.086-.514.128-.77.034-.21.07-.42.101-.63.04-.263.074-.527.11-.791.028-.205.058-.41.083-.615.035-.278.063-.555.093-.832.021-.194.045-.387.064-.58.029-.306.052-.612.076-.918.014-.167.03-.334.042-.502.033-.473.06-.946.081-1.42l3.89-51.75h33.985l3.89 51.75zM93.625 45.67l.06-.05.01-.008c.129-.106.256-.208.381-.307l.01-.008c1.765-1.402 3.15-2.23 3.915-2.644.832.449 2.393 1.386 4.381 3.015A35.26 35.26 0 0098 46.998a35.125 35.125 0 00-4.375-1.328zm-7.902 8.837l-.324.043c.091-.124.181-.25.272-.372.047-.063.095-.126.141-.19l.352-.466.154-.2c.113-.148.227-.294.34-.438l.153-.193c.115-.146.23-.289.345-.43l.14-.174c.123-.15.245-.298.367-.444l.114-.136c.145-.173.29-.344.435-.511l.038-.045c.329-.38.653-.743.974-1.094l.013-.013c.15-.165.301-.325.45-.484l.079-.082c.129-.135.257-.27.385-.4l.09-.093.192-.195c.627.082 1.61.246 2.853.559a36.9 36.9 0 00-1.294.731 39.126 39.126 0 00-6.269 4.627zm18.285-4.627a39.11 39.11 0 00-1.301-.735 25.86 25.86 0 012.872-.556 51.81 51.81 0 015.044 5.964 48.69 48.69 0 00-.346-.046 39.128 39.128 0 00-6.27-4.627zm19.885-5.156c.007.104.354 5.206 1.116 10.94-.03-.093-.063-.184-.093-.278l-.031-.103a49.41 49.41 0 01-.408-1.372l-.128-.468a50.807 50.807 0 01-.659-2.732l-.074-.345c-.1-.488-.19-.978-.275-1.47-.025-.144-.048-.29-.071-.434a48.345 48.345 0 01-.178-1.167l-.03-.232c-.03-.229-.058-.458-.085-.688-.028-.232-.056-.464-.081-.698a50.946 50.946 0 01-.177-2.034l-.005-.066-3.348-32.65 2.75 1.344 1.777 32.453zM29.77 133.551l39.664-60.513-21.59 60.513H29.77zm118.386 0l-21.59-60.511 39.664 60.511h-18.074zm47.348.513l-61.65-62.618a41.109 41.109 0 01-1.92-2.36V14.313c0-.105-.013-.207-.031-.308-.005-.03-.012-.058-.018-.087a1.663 1.663 0 00-.072-.229l-.022-.062a1.698 1.698 0 00-.14-.257c-.013-.02-.028-.04-.043-.06a1.833 1.833 0 00-.147-.18l-.055-.057a1.7 1.7 0 00-.229-.189l-.01-.006a1.772 1.772 0 00-.199-.115L118.854 6.84l-.554-5.264-.001-.018v-.002l-.002-.013c-.003-.027-.012-.052-.016-.08-.012-.077-.024-.156-.046-.23V1.23l-.006-.015c-.012-.04-.031-.077-.046-.116-.023-.058-.044-.117-.072-.172L118.1.905c-.02-.038-.047-.07-.07-.107-.031-.048-.06-.097-.096-.142-.006-.008-.011-.017-.018-.025-.025-.031-.056-.057-.084-.086-.04-.042-.078-.084-.12-.122-.01-.007-.018-.017-.027-.025-.028-.023-.06-.04-.09-.062a1.71 1.71 0 00-.146-.1c-.012-.007-.023-.017-.035-.023-.03-.016-.061-.026-.09-.04a1.741 1.741 0 00-.168-.072c-.005-.001-.01-.004-.014-.006-.008-.002-.015-.007-.023-.01-.004 0-.007-.002-.01-.003-.029-.01-.06-.013-.09-.02a1.65 1.65 0 00-.174-.038c-.02-.003-.04-.01-.059-.012h-.006c-.03-.004-.06 0-.089-.002-.035-.002-.068-.01-.104-.01H79.413c-.033 0-.065.007-.098.01-.036.001-.073-.002-.109.003l-.008.001c-.017.002-.033.008-.05.011-.051.008-.1.02-.15.031a1.65 1.65 0 00-.172.05c-.043.016-.083.035-.124.054-.057.027-.114.053-.169.085-.035.022-.068.047-.102.07a1.574 1.574 0 00-.155.118c-.03.027-.057.058-.086.088a1.748 1.748 0 00-.131.142c-.028.037-.05.077-.076.116-.017.025-.036.05-.051.077L77.903.9c-.006.01-.01.022-.017.033-.027.053-.046.111-.068.168-.015.038-.035.074-.047.114l-.006.016v.004c-.02.068-.03.14-.042.212-.005.034-.017.064-.02.097l-.557 5.297-12.113 5.922a1.7 1.7 0 00-.195.113l-.015.009a1.68 1.68 0 00-.228.188c-.02.019-.038.039-.057.059-.052.056-.1.114-.145.176l-.045.063c-.053.08-.1.166-.138.256-.01.02-.015.041-.023.062a1.666 1.666 0 00-.09.316c-.018.1-.03.203-.03.308v54.775c-.615.81-1.251 1.6-1.922 2.359L.496 134.064A1.726 1.726 0 001.72 137h65.984c.89 0 1.634-.683 1.712-1.573l3.96-45.15 2.12-9.789c1.34-3.55 3.19-6.747 5.491-9.403C85.55 65.816 91.433 63.03 98 63.03c6.549 0 12.423 2.77 16.989 8.01 2.28 2.617 4.124 5.762 5.469 9.256l.02.07 2.148 9.913 3.959 45.147c.078.89.822 1.573 1.713 1.573h65.983c.693 0 1.319-.418 1.586-1.06a1.728 1.728 0 00-.363-1.876z"
        fill="currentColor"
        fill-rule="evenodd"
    />
</svg>