<svg
    width="60px"
    height="60px"
    xmlns="http://www.w3.org/2000/svg"
    viewBox="0 0 60 60"
>
    <path fill="currentColor" fill-rule="nonzero" d="M60 21.4V18h-1v-5l-2-8.1V0h-2v4.9l-2 7.9V18h-1v3.4l1 1V27h-1v2.2l1 2v1.3c-1.1-1-2.5-1.5-4-1.5v-2h1v-2h-1c0-1.8-1.2-3.4-3-3.9V21h1v-2h-1.1C45.4 12.8 40.2 8 34 8h-1V6.2c0-1.1-.6-2.2-1.7-2.7l-.3-.1V0h-2v3.4l-.3.2c-1 .5-1.7 1.5-1.7 2.7V8h-1c-6.2 0-11.4 4.8-11.9 11H13v2h1v2.1c-1.8.5-3 2-3 3.9h-1v2h1v2c-1.5 0-2.9.5-4 1.5v-1.3l1-2V27H7v-4.6l1-1V18H7v-5L5 4.9V0H3v4.9l-2 7.9V18H0v3.4l1 1V27H0v2.2l1 2V58H0v2h60v-2h-1V31.2l1-2V27h-1v-4.6l1-1zM57 18h-2v-4h2v4zm-1.7-6l.7-2.9.7 2.9h-1.4zM54 20h4v.6l-.4.4h-3.2l-.4-.4V20zm3.4 10h-2.8l-.5-1h3.8l-.5 1zm-.4-3h-2v-4h2v4zM2.6 30l-.5-1h3.8l-.5 1H2.6zM5 23v4H3v-4h2zm0-9v4H3v-4h2zm-1.7-2L4 9.1l.7 2.9H3.3zM16 44h-2v-1c0-.6.4-1 1-1s1 .4 1 1v1zm0 2v6h-2v-6h2zm30-2h-2v-2c0-.6.4-1 1-1s1 .4 1 1v2zm0 2v6h-2v-6h2zm-4 6h-5.1c-.5-2.9-3-5-5.9-5h-2c-2.9 0-5.4 2.1-5.9 5H18v-6h24v6zm-7.1 0h-9.7c.5-1.8 2-3 3.9-3h2c1.7 0 3.3 1.2 3.8 3zM12 52H7v-6h5v6zm-5 2h46v4H7v-4zm46-2h-5v-6h5v6zm-5-8v-2c0-1.7-1.3-3-3-3s-3 1.3-3 3v2H18v-1c0-1.7-1.3-3-3-3s-3 1.3-3 3v1H7v-6h46v6h-5zm-25-8c0-3.9 3.1-7 7-7s7 3.1 7 7H23zm29.9 0H49v-3c1.8 0 3.4 1.2 3.9 3zM47 36h-4v-7h4v7zm0-9h-4c0-1.1.9-2 2-2s2 .9 2 2zM29 6.2c0-.4.2-.7.6-.9l.4-.2.4.2c.4.2.6.6.6.9V8h-2V6.2zM26 10h8c5.1 0 9.4 3.9 9.9 9H16.1c.5-5.1 4.8-9 9.9-9zm18 11v2.1c-1.8.5-3 2-3 3.9h-4v2h4v7h-2c0-5-4-9-9-9s-9 4-9 9h-2v-7h4v-2h-4c0-1.8-1.2-3.4-3-3.9V21h28zm-29 4c1.1 0 2 .9 2 2h-4c0-1.1.9-2 2-2zm2 4v7h-4v-7h4zm-6 4v3H7.1c.5-1.8 2.1-3 3.9-3zM2 20h4v.6l-.4.4H2.4l-.4-.4V20zm1 12h2v26H3V32zm52 26V32h2v26h-2zM21 22h2v4h-2v-4zm5 0h2v4h-2v-4zm5 0h2v4h-2v-4zm5 0h2v4h-2v-4zM25 39h2v4h-2v-4zm4 0h2v4h-2v-4zm4 0h2v4h-2v-4zm4 0h2v4h-2v-4zm-16 0h2v4h-2v-4zm4 16h2v2h-2v-2zm4 0h2v2h-2v-2zm4 0h2v2h-2v-2zm4 0h2v2h-2v-2zm-20 0h2v2h-2v-2zm4 0h2v2h-2v-2zm20 0h2v2h-2v-2zm-3-8h2v4h-2v-4zm-18 0h2v4h-2v-4z" />   
</svg>