<svg viewBox="0 0 51 51" version="1.1" xmlns="http://www.w3.org/2000/svg" xmlns:xlink="http://www.w3.org/1999/xlink" fill="currentColor" width="51px" height="51px">
    <defs>
        <path d="M28.909375,48.0195313 L44.18125,48.0195313 L44.18125,36.0195313 L23.359375,30.0164063 L2.346875,36.0226563 L2.346875,48.0195313 L17.8125,48.0195313 L17.8125,35.7945313 C17.8125,35.3195313 18.196875,34.9351563 18.675,34.9351563 L28.05,34.9351563 C28.525,34.9351563 28.909375,35.3195313 28.909375,35.7945313 L28.909375,48.0195313 Z M19.534375,48.0195313 L27.1875,48.0195313 L27.1875,36.6539063 L19.534375,36.6539063 L19.534375,48.0195313 Z M23.359375,23.7695313 L2.346875,29.7726563 L2.346875,34.2320313 L23.125,28.2945313 C23.209375,28.2695313 23.28125,28.3195313 23.3625,28.3195313 C23.44375,28.3195313 23.515625,28.2726563 23.6,28.2945313 L44.18125,34.2289063 L44.18125,29.7695313 L23.359375,23.7695313 Z M7.034375,20.6101563 L7.034375,26.6414063 L13.125,24.9039063 L13.125,20.6101563 L7.034375,20.6101563 Z M23.3625,2.43203125 L15.70625,12.6382813 L31.015625,12.6382813 L23.3625,2.43203125 Z M23.3625,15.7632813 C26.421875,15.7632813 28.909375,18.2507813 28.909375,21.3101563 L28.909375,23.5789063 L31.875,24.4320313 L31.875,14.3601563 L14.846875,14.3601563 L14.846875,24.4101563 L17.8125,23.5632813 L17.8125,21.3101563 C17.8125,18.2507813 20.303125,15.7632813 23.3625,15.7632813 Z M27.1875,23.0820313 L27.1875,21.3101563 C27.1875,19.2007813 25.471875,17.4851563 23.3625,17.4851563 C21.25,17.4851563 19.534375,19.2007813 19.534375,21.3101563 L19.534375,23.0726563 L23.125,22.0445313 C23.284375,22.0070313 23.446875,22.0070313 23.6,22.0445313 L27.1875,23.0820313 Z M39.6875,20.6101563 L33.596875,20.6101563 L33.596875,24.9257813 L39.6875,26.6851563 L39.6875,20.6101563 Z M45.278125,28.2945313 C45.646875,28.4039063 45.9,28.7382813 45.9,29.1226563 L45.9,48.8789063 C45.9,49.3570313 45.515625,49.7414063 45.040625,49.7414063 L1.4875,49.7414063 C1.009375,49.7414063 0.625,49.3570313 0.625,48.8789063 L0.625,29.1226563 C0.625,28.7382813 0.88125,28.4007813 1.25,28.2945313 L5.3125,27.1351563 L5.3125,19.7476563 C5.3125,19.2726563 5.696875,18.8882813 6.175,18.8882813 L13.125,18.8882813 L13.125,13.4976563 C13.125,13.3976563 13.2,13.3320313 13.23125,13.2445313 C13.259375,13.1570313 13.240625,13.0570313 13.296875,12.9820313 L22.671875,0.48203125 C22.996875,0.04765625 23.725,0.04765625 24.05,0.48203125 L33.425,12.9820313 C33.4875,13.0601563 33.465625,13.1601563 33.49375,13.2507813 C33.525,13.3351563 33.596875,13.4007813 33.596875,13.4976563 L33.596875,18.8882813 L40.55,18.8882813 C41.025,18.8882813 41.409375,19.2726563 41.409375,19.7476563 L41.409375,27.1789063 L45.278125,28.2945313 Z M35.16,43.6845313 L39.688125,43.6845313 L39.688125,39.1564063 L35.16,39.1564063 L35.16,43.6845313 Z M40.5475,37.4345313 C41.025625,37.4345313 41.41,37.8189063 41.41,38.2939063 L41.41,44.5439063 C41.41,45.0189063 41.025625,45.4032813 40.5475,45.4032813 L34.2975,45.4032813 C33.8225,45.4032813 33.438125,45.0189063 33.438125,44.5439063 L33.438125,38.2939063 C33.438125,37.8189063 33.8225,37.4345313 34.2975,37.4345313 L40.5475,37.4345313 Z M7.035,43.6845313 L11.563125,43.6845313 L11.563125,39.1564063 L7.035,39.1564063 L7.035,43.6845313 Z M12.4225,37.4345313 C12.900625,37.4345313 13.285,37.8189063 13.285,38.2939063 L13.285,44.5439063 C13.285,45.0189063 12.900625,45.4032813 12.4225,45.4032813 L6.1725,45.4032813 C5.6975,45.4032813 5.313125,45.0189063 5.313125,44.5439063 L5.313125,38.2939063 C5.313125,37.8189063 5.6975,37.4345313 6.1725,37.4345313 L12.4225,37.4345313 Z M42.7340625,7.9915625 C41.9465625,7.9915625 41.3059375,8.6321875 41.3059375,9.4196875 C41.3059375,10.2071875 41.9465625,10.8478125 42.7340625,10.8478125 C43.5215625,10.8478125 44.1621875,10.2071875 44.1621875,9.4196875 C44.1621875,8.6321875 43.5215625,7.9915625 42.7340625,7.9915625 Z M42.7340625,12.3384375 C41.1215625,12.3384375 39.8121875,11.0290625 39.8121875,9.4196875 C39.8121875,7.8071875 41.1215625,6.4978125 42.7340625,6.4978125 C44.3465625,6.4978125 45.6559375,7.8071875 45.6559375,9.4196875 C45.6559375,11.0290625 44.3465625,12.3384375 42.7340625,12.3384375 Z M41.9884375,5.6890625 L41.9884375,2.8890625 L43.4821875,2.8890625 L43.4821875,5.6890625 L41.9884375,5.6890625 Z M40.6221875,6.255 L39.5690625,7.31125 L37.5878125,5.33 L38.6440625,4.27375 L40.6221875,6.255 Z M36.2040625,10.1671875 L36.2040625,8.6734375 L39.0040625,8.6734375 L39.0040625,10.1671875 L36.2040625,10.1671875 Z M37.58875,13.5090625 L39.57,11.5309375 L40.62625,12.5840625 L38.645,14.5653125 L37.58875,13.5090625 Z M41.9884375,15.9484375 L41.9884375,13.1484375 L43.4821875,13.1484375 L43.4821875,15.9484375 L41.9884375,15.9484375 Z M47.879375,13.50625 L46.82625,14.5625 L44.845,12.58125 L45.90125,11.528125 L47.879375,13.50625 Z M46.4634375,10.1640625 L46.4634375,8.6703125 L49.2634375,8.6703125 L49.2634375,10.1640625 L46.4634375,10.1640625 Z M6.0009375,10.1640625 L6.0009375,8.6703125 L11.6009375,8.6703125 L11.6009375,10.1640625 L6.0009375,10.1640625 Z M3.99375,13.2890625 L3.99375,11.7953125 L8.19375,11.7953125 L8.19375,13.2890625 L3.99375,13.2890625 Z M47.879375,5.330625 L45.898125,7.30875 L44.841875,6.255625 L46.823125,4.274375 L47.879375,5.330625 Z" id="van" />
    </defs>
    <g stroke="none" stroke-width="1" fill="none" fill-rule="evenodd">
        <g id="intl-Hotel-City-landing---Van---Desktop" transform="translate(-774.000000, -138.000000)">
            <g transform="translate(649.000000, 94.000000)">
                <g transform="translate(34.500000, 44.500000)">
                    <g>
                        <g id="Icon-/-Tours-Homepage-/-van" transform="translate(91.000000, 0.000000)">
                            <mask id="van-mask" fill="white">
                                <use xlink:href="#van" />
                            </mask>
                            <use id="Mask" fill="currentColor" xlink:href="#van" />
                            <g id="Color-Palettes-/-White-Color" mask="url(#van-mask)" fill="currentColor">
                                <g transform="translate(-0.000000, 0.000000)" id="White-Color">
                                    <rect x="0" y="0" width="50" height="50" />
                                </g>
                            </g>
                        </g>
                    </g>
                </g>
            </g>
        </g>
    </g>
</svg>
