<svg viewBox="0 0 51 51" version="1.1" xmlns="http://www.w3.org/2000/svg" xmlns:xlink="http://www.w3.org/1999/xlink" fill="currentColor" width="51px" height="51px">
    <defs>
        <path d="M6.903125,32.25625 C8.7,32.25625 10.159375,33.71875 10.159375,35.5125 L10.159375,42.184375 L12.03125,42.184375 L12.03125,24.384375 L1.6625,24.384375 L1.6625,42.184375 L3.534375,42.184375 L3.534375,35.5125 C3.534375,33.71875 4.996875,32.25625 6.790625,32.25625 L6.903125,32.25625 Z M8.496875,42.125 L8.496875,35.5125 C8.496875,34.634375 7.78125,33.91875 6.903125,33.91875 L6.790625,33.91875 C5.9125,33.91875 5.196875,34.634375 5.196875,35.5125 L5.196875,42.125 L8.496875,42.125 Z M33.3375,15.6875 L33.3375,9.63125 L29.828125,7.9125 L20.571875,7.9125 L17.065625,9.58125 L17.065625,15.6875 L33.3375,15.6875 Z M36.20625,22.721875 L36.20625,17.35 L35.003125,17.35 L15.403125,17.35 L13.69375,17.35 L13.69375,22.721875 L13.69375,24.696875 L36.20625,24.696875 L36.20625,22.721875 Z M25.01875,29.8875 C27.665625,29.8875 29.815625,32.040625 29.815625,34.68125 L29.815625,42.184375 L36.20625,42.184375 L36.20625,26.359375 L13.69375,26.359375 L13.69375,42.184375 L20.04375,42.184375 L20.04375,34.68125 C20.04375,32.040625 22.19375,29.8875 24.8375,29.8875 L25.01875,29.8875 Z M21.70625,42.184375 L28.15,42.184375 L28.15,34.68125 C28.15,32.95625 26.746875,31.55 25.01875,31.55 L24.8375,31.55 C23.1125,31.55 21.70625,32.95625 21.70625,34.68125 L21.70625,42.184375 Z M43.10625,32.3125 C44.90625,32.3125 46.365625,33.771875 46.365625,35.571875 L46.365625,42.184375 L48.234375,42.184375 L48.234375,24.384375 L37.871875,24.384375 L37.871875,42.184375 L39.7375,42.184375 L39.7375,35.571875 C39.7375,33.771875 41.2,32.3125 42.996875,32.3125 L43.10625,32.3125 Z M41.403125,42.184375 L44.703125,42.184375 L44.703125,35.571875 C44.703125,34.690625 43.9875,33.975 43.10625,33.975 L42.996875,33.975 C42.11875,33.975 41.403125,34.690625 41.403125,35.571875 L41.403125,42.184375 Z M37.871875,22.721875 L49.896875,22.721875 L49.896875,43.846875 L46.365625,43.846875 L39.7375,43.846875 L37.871875,43.846875 L36.20625,43.846875 L29.815625,43.846875 L20.04375,43.846875 L13.69375,43.846875 L12.03125,43.846875 L4.97379915e-14,43.846875 L4.97379915e-14,22.721875 L12.03125,22.721875 L12.03125,15.6875 L15.403125,15.6875 L15.403125,8.528125 L20.284375,6.25 L30.296875,6.2875 L35.003125,8.59375 L35.003125,15.6875 L37.871875,15.6875 L37.871875,22.721875 Z M18.95625,14.421875 L18.95625,10.771875 L20.61875,10.771875 L20.61875,14.421875 L18.95625,14.421875 Z M30.2375,14.421875 L30.2375,10.771875 L31.9,10.771875 L31.9,14.421875 L30.2375,14.421875 Z M26.703125,14.421875 L26.703125,10.771875 L28.365625,10.771875 L28.365625,14.421875 L26.703125,14.421875 Z M22.56875,14.421875 L22.56875,10.771875 L24.23125,10.771875 L24.23125,14.421875 L22.56875,14.421875 Z M17.1375,21.94375 L17.1375,20.278125 L32.71875,20.278125 L32.71875,21.94375 L17.1375,21.94375 Z M43.0528125,29.1921875 C43.6246875,29.1921875 44.0903125,28.7265625 44.0903125,28.1515625 C44.0903125,27.5796875 43.6246875,27.1140625 43.0528125,27.1140625 C42.4809375,27.1140625 42.0153125,27.5796875 42.0153125,28.1515625 C42.0153125,28.7265625 42.4809375,29.1921875 43.0528125,29.1921875 Z M43.0528125,25.4515625 C44.5434375,25.4515625 45.7528125,26.6609375 45.7528125,28.1515625 C45.7528125,29.6453125 44.5434375,30.8546875 43.0528125,30.8546875 C41.5590625,30.8546875 40.3496875,29.6453125 40.3496875,28.1515625 C40.3496875,26.6609375 41.5590625,25.4515625 43.0528125,25.4515625 Z M7.885625,28.1515625 C7.885625,27.5796875 7.42,27.1140625 6.845,27.1140625 C6.273125,27.1140625 5.8075,27.5796875 5.8075,28.1515625 C5.8075,28.7265625 6.273125,29.1921875 6.845,29.1921875 C7.42,29.1921875 7.885625,28.7265625 7.885625,28.1515625 Z M6.845,25.4515625 C8.33875,25.4515625 9.548125,26.6609375 9.548125,28.1515625 C9.548125,29.6453125 8.33875,30.8546875 6.845,30.8546875 C5.354375,30.8546875 4.145,29.6453125 4.145,28.1515625 C4.145,26.6609375 5.354375,25.4515625 6.845,25.4515625 Z" id="yerevan" />
    </defs>
    <g stroke="none" stroke-width="1" fill="none" fill-rule="evenodd">
        <g id="intl-Hotel-City-landing---Yerevan---Desktop" transform="translate(-774.000000, -138.000000)">
            <g transform="translate(649.000000, 94.000000)">
                <g transform="translate(34.500000, 44.500000)">
                    <g>
                        <g id="Icon-/-Tours-Homepage-/-yerevan" transform="translate(91.000000, 0.000000)">
                            <mask id="yerevan-mask" fill="white">
                                <use xlink:href="#yerevan" />
                            </mask>
                            <use id="Mask" fill="#231F20" xlink:href="#yerevan" />
                            <g id="Color-Palettes-/-White-Color" mask="url(#yerevan-mask)" fill="currentColor">
                                <g transform="translate(-0.000000, 0.000000)" id="White-Color">
                                    <rect x="0" y="0" width="50" height="50" />
                                </g>
                            </g>
                        </g>
                    </g>
                </g>
            </g>
        </g>
    </g>
</svg>