<svg width="16" height="16" viewBox="0 0 16 16" fill="none" xmlns="http://www.w3.org/2000/svg">
<g clip-path="url(#clip0_2638_8731)">
<path d="M15.9892 7.99996C15.9892 3.58764 12.4123 0.0107422 7.99996 0.0107422C3.58764 0.0107422 0.0107422 3.58764 0.0107422 7.99996C0.0107422 12.4123 3.58764 15.9892 7.99996 15.9892C12.4123 15.9892 15.9892 12.4123 15.9892 7.99996Z" fill="white"/>
<path d="M12.054 11.256C12.0108 11.3338 11.9069 11.3692 11.8148 11.3955L10.763 11.6927C10.6705 11.7185 10.5553 11.7399 10.4781 11.6957C10.4009 11.6515 10.3625 11.5428 10.3379 11.4509C8.8104 5.75303 8.59972 4.52457 7.98495 4.52457C7.37018 4.52457 7.15908 5.75303 5.63088 11.4501C5.6063 11.5419 5.56619 11.6508 5.49094 11.6948C5.41568 11.7388 5.29816 11.7177 5.20565 11.6918L4.15379 11.3947C4.06172 11.3683 3.958 11.333 3.91487 11.2551C3.87175 11.1773 3.89072 11.0628 3.91487 10.9733C5.47649 5.17147 6.35153 3.53223 7.98388 3.53223C9.61622 3.53223 10.4913 5.17104 12.0527 10.9733C12.0768 11.0637 12.0947 11.1805 12.054 11.256Z" fill="#FDB913"/>
<path d="M12.9878 7.59041C12.9878 7.6551 12.9753 7.68205 12.95 7.7517L12.9069 7.87138C12.8819 7.9406 12.8461 8.0124 12.7859 8.04604C12.7258 8.07968 12.6397 8.07494 12.5673 8.05898C9.74249 7.43192 6.85882 8.87106 5.65257 11.485C5.60944 11.5796 5.54108 11.7209 5.38755 11.7209C5.32605 11.7206 5.26495 11.7109 5.20642 11.692L4.1524 11.3944C4.03057 11.3599 3.89062 11.3129 3.89062 11.1486C3.89062 11.0819 3.91672 11.0108 3.94712 10.945C5.49882 7.61542 9.36642 6.06523 12.7784 7.37478C12.8592 7.40669 12.9878 7.45672 12.9878 7.59041Z" fill="url(#paint0_linear_2638_8731)"/>
</g>
<defs>
<linearGradient id="paint0_linear_2638_8731" x1="3.88998" y1="9.31655" x2="12.9878" y2="9.31655" gradientUnits="userSpaceOnUse">
<stop offset="0.3" stop-color="#FDB913"/>
<stop offset="0.75" stop-color="#F7941F"/>
</linearGradient>
<clipPath id="clip0_2638_8731">
<rect width="16" height="16" fill="white"/>
</clipPath>
</defs>
</svg>
